<svg xmlns="http://www.w3.org/2000/svg" width="913" height="886" viewBox="0 0 913 886" fill="none">
<g clip-path="url(#clip0_1:1019)">
<g style="mix-blend-mode:multiply">
<path d="M94.0803 749.046L503.702 987.555L913 747.107L503.055 508.275L94.0803 749.046Z" fill="#E6E7E8"/>
</g>
<path d="M570.948 312.102V335.695L692.833 264.271V240.356L570.948 312.102Z" fill="url(#paint0_linear_1:1019)"/>
<path d="M570.948 312.102V335.694L449.064 264.594V241.002L570.948 312.102Z" fill="url(#paint1_linear_1:1019)"/>
<path d="M449.064 241.002L570.948 312.102L692.833 240.356L570.625 169.256L449.064 241.002Z" fill="url(#paint2_linear_1:1019)"/>
<g style="mix-blend-mode:screen">
<path d="M570.948 310.163L450.681 240.033L449.064 241.002L570.948 312.102L692.833 240.356L691.216 239.386L570.948 310.163Z" fill="url(#paint3_radial_1:1019)"/>
</g>
<path d="M570.948 278.491V302.407L692.833 230.66V207.068L570.948 278.491Z" fill="url(#paint4_linear_1:1019)"/>
<path d="M570.948 278.491V302.407L449.064 231.306V207.714L570.948 278.491Z" fill="url(#paint5_linear_1:1019)"/>
<path d="M449.064 207.714L570.948 278.491L692.833 207.068L570.625 135.968L449.064 207.714Z" fill="url(#paint6_linear_1:1019)"/>
<g style="mix-blend-mode:screen">
<path d="M570.948 276.552L450.681 206.745L449.064 207.714L570.948 278.491L692.833 207.068L691.216 206.098L570.948 276.552Z" fill="url(#paint7_radial_1:1019)"/>
</g>
<path d="M570.948 245.204V268.796L692.833 197.373V173.457L570.948 245.204Z" fill="url(#paint8_linear_1:1019)"/>
<path d="M570.948 245.204V268.797L449.064 198.02V174.104L570.948 245.204Z" fill="url(#paint9_linear_1:1019)"/>
<path d="M449.064 174.104L570.948 245.204L692.833 173.457L570.625 102.68L449.064 174.104Z" fill="url(#paint10_linear_1:1019)"/>
<g style="mix-blend-mode:screen">
<path d="M570.948 243.265L450.681 173.134L449.064 174.104L570.948 245.204L692.833 173.458L691.216 172.488L570.948 243.265Z" fill="url(#paint11_radial_1:1019)"/>
</g>
<path d="M570.948 211.916V235.508L692.833 164.085V140.169L570.948 211.916Z" fill="url(#paint12_linear_1:1019)"/>
<path d="M570.948 211.916V235.508L449.064 164.408V140.815L570.948 211.916Z" fill="url(#paint13_linear_1:1019)"/>
<path d="M449.064 140.816L570.948 211.916L692.833 140.169L570.625 69.0691L449.064 140.816Z" fill="url(#paint14_linear_1:1019)"/>
<path d="M468.139 140.816L570.625 80.3804L673.435 140.169L570.948 200.604L468.139 140.816Z" fill="#45108A"/>
<path d="M570.625 85.2281L669.555 142.755L673.435 140.169L570.625 80.3804L468.139 140.816L472.342 143.078L570.625 85.2281Z" fill="url(#paint15_linear_1:1019)"/>
<path d="M570.625 85.2281L669.555 142.755L673.435 140.169L570.625 80.3804V85.2281Z" fill="#330A66"/>
<g style="mix-blend-mode:screen">
<path d="M570.948 209.977L450.681 139.846L449.064 140.816L570.948 211.916L692.833 140.169L691.216 139.2L570.948 209.977Z" fill="url(#paint16_radial_1:1019)"/>
</g>
<path d="M633.669 146.633C621.06 139.523 612.654 130.151 609.421 120.132C591.963 118.193 575.798 113.345 563.513 106.235L563.189 105.912L556.077 110.437C532.152 126.919 528.273 143.724 531.183 164.731L531.829 165.055C568.685 166.994 597.459 164.731 626.233 150.835L634.315 146.956L633.669 146.633Z" fill="#43E8E1"/>
<path d="M609.421 138.23C591.963 136.291 575.798 131.444 563.189 124.01L562.866 123.687L556.077 128.535C540.235 139.523 533.122 150.511 531.183 162.792C531.183 163.439 531.183 164.085 531.506 164.731L532.153 165.055C566.099 166.671 593.256 165.055 619.767 153.743C614.594 148.896 611.361 143.725 609.421 138.23Z" fill="url(#paint17_radial_1:1019)"/>
<g style="mix-blend-mode:screen">
<path d="M530.213 0.554443V164.731L531.183 164.408L531.829 164.731C568.685 166.67 597.459 164.408 626.233 150.511L634.315 146.633V0.554443H530.213Z" fill="url(#paint18_linear_1:1019)"/>
</g>
<path d="M648.541 609.431V733.21L770.425 661.786V537.684L648.541 609.431Z" fill="url(#paint19_linear_1:1019)"/>
<path d="M648.54 609.43V733.209L526.656 662.109V538.33L648.54 609.43Z" fill="#330A66"/>
<path d="M526.656 538.33L648.54 609.431L770.425 537.684L648.217 466.584L526.656 538.33Z" fill="#45108A"/>
<path d="M648.54 607.491L528.273 537.361L526.656 538.33L648.54 609.43L770.425 537.684L768.808 536.714L648.54 607.491Z" fill="url(#paint20_radial_1:1019)"/>
<path d="M503.702 691.519V815.298L625.586 743.874V619.772L503.702 691.519Z" fill="url(#paint21_linear_1:1019)"/>
<path d="M503.702 691.519V815.298L381.818 744.521V620.419L503.702 691.519Z" fill="#330A66"/>
<path d="M381.818 620.419L503.702 691.519L625.586 619.772L503.379 548.995L381.818 620.419Z" fill="#45108A"/>
<path d="M503.702 689.58L383.434 619.449L381.818 620.419L503.702 691.519L625.586 619.773L623.97 618.803L503.702 689.58Z" fill="url(#paint22_radial_1:1019)"/>
<g style="mix-blend-mode:screen">
<path d="M570.302 212.239L448.418 141.462L373.089 186.708V310.487L494.973 381.587L570.302 336.342V212.239Z" fill="url(#paint23_linear_1:1019)"/>
</g>
<path d="M786.266 692.812V816.914L908.474 745.168V621.389L786.266 692.812Z" fill="url(#paint24_linear_1:1019)"/>
<path d="M786.59 692.812V816.914L664.705 745.814V622.035L786.59 692.812Z" fill="#330A66"/>
<path d="M664.705 622.035L786.59 692.812L908.474 621.389L786.266 550.289L664.705 622.035Z" fill="#45108A"/>
<path d="M644.984 774.9V899.002L766.868 827.256V703.477L644.984 774.9Z" fill="url(#paint25_linear_1:1019)"/>
<path d="M644.984 774.9V899.002L523.1 827.902V704.123L644.984 774.9Z" fill="#330A66"/>
<path d="M523.1 704.123L644.984 774.9L766.868 703.477L644.984 632.377L523.1 704.123Z" fill="#45108A"/>
<g style="mix-blend-mode:screen">
<path d="M161.327 591.979L108.629 623.327L230.513 694.428V818.207L283.535 786.858V663.079L161.327 591.979Z" fill="url(#paint26_linear_1:1019)"/>
</g>
<path d="M178.139 725.453V849.556L231.16 818.207V694.105L178.139 725.453Z" fill="url(#paint27_linear_1:1019)"/>
<path d="M178.139 725.453V849.555L56.2544 778.455V654.676L178.139 725.453Z" fill="url(#paint28_linear_1:1019)"/>
<path d="M65.9534 772.961V671.482L168.44 730.948V832.75L65.9534 772.961Z" fill="#330A66"/>
<path d="M69.5097 771.022V673.421L65.9534 671.482V772.961L168.44 832.75V828.549L69.5097 771.022Z" fill="url(#paint29_linear_1:1019)"/>
<path d="M69.5097 771.022L65.9534 772.961L168.44 832.75V828.548L69.5097 771.022Z" fill="#45108A"/>
<path d="M56.2544 654.676L178.139 725.453L231.16 694.104L109.276 623.327L56.2544 654.676Z" fill="url(#paint30_linear_1:1019)"/>
<g style="mix-blend-mode:screen">
<path d="M178.139 723.514L57.8709 653.707L56.2544 654.677L178.139 725.454L231.16 694.105L229.543 693.135L178.139 723.514Z" fill="url(#paint31_radial_1:1019)"/>
</g>
<path d="M122.854 758.741V785.888L110.569 778.778V751.631C105.719 746.137 102.486 738.704 102.486 731.917C102.486 722.868 108.952 719.313 116.712 723.837C124.471 728.362 130.937 739.35 130.937 748.399C131.26 755.186 127.704 758.741 122.854 758.741Z" fill="#43E8E1"/>
<path d="M122.854 758.741V785.888L110.569 778.778V751.631C105.719 746.137 102.486 738.704 102.486 731.917C102.486 722.868 108.952 719.313 116.712 723.837C124.471 728.362 130.937 739.35 130.937 748.399C131.26 755.186 127.704 758.741 122.854 758.741Z" fill="url(#paint32_radial_1:1019)"/>
<g style="mix-blend-mode:screen">
<path d="M116.711 723.837C111.215 720.606 106.689 721.575 104.103 725.13L0 781.687V850.525L122.854 785.565V758.418C127.704 758.741 130.937 754.863 130.937 748.399C131.26 739.35 124.794 728.362 116.711 723.837Z" fill="url(#paint33_linear_1:1019)"/>
</g>
<path d="M365.653 776.193V900.295L487.537 828.548V704.769L365.653 776.193Z" fill="url(#paint34_linear_1:1019)"/>
<path d="M365.653 776.193V900.295L243.769 829.195V705.416L365.653 776.193Z" fill="#330A66"/>
<path opacity="0.2" d="M280.301 789.766V726.423L243.769 705.416V811.096L280.301 789.766Z" fill="url(#paint35_radial_1:1019)"/>
<path d="M243.769 705.416L365.653 776.193L487.537 704.769L365.653 633.669L243.769 705.416Z" fill="#45108A"/>
<g style="mix-blend-mode:screen">
<path d="M365.653 774.254L245.385 704.446L243.769 705.416L365.653 776.193L487.537 704.769L485.921 703.8L365.653 774.254Z" fill="url(#paint36_radial_1:1019)"/>
</g>
<path d="M227.604 553.843V677.945L349.488 606.522V482.42L227.604 553.843Z" fill="url(#paint37_linear_1:1019)"/>
<path d="M227.603 553.843V677.945L105.719 606.845V483.066L227.603 553.843Z" fill="#330A66"/>
<path d="M105.719 483.066L227.603 553.843L349.488 482.42L227.603 411.32L105.719 483.066Z" fill="#45108A"/>
<g style="mix-blend-mode:screen">
<path d="M227.603 551.904L107.659 482.097L105.719 483.066L227.603 553.843L349.488 482.42L347.871 481.45L227.603 551.904Z" fill="url(#paint38_radial_1:1019)"/>
</g>
<path opacity="0.2" d="M175.552 612.34L154.861 600.382C146.778 595.534 139.343 595.211 133.846 598.12L123.177 604.583C128.674 601.675 135.786 602.321 143.869 606.846L164.56 618.803C177.492 626.236 188.484 642.072 192.687 657.585L205.619 665.018V664.049C205.619 644.981 192.364 622.035 175.552 612.34Z" fill="url(#paint39_radial_1:1019)"/>
<path d="M503.702 856.988V981.091L625.586 909.344V785.565L503.702 856.988Z" fill="url(#paint40_linear_1:1019)"/>
<path d="M503.702 856.988V981.09L381.818 909.99V786.211L503.702 856.988Z" fill="#330A66"/>
<path d="M381.818 786.211L503.702 856.988L625.586 785.565L503.379 714.465L381.818 786.211Z" fill="#45108A"/>
<g style="mix-blend-mode:screen">
<path d="M503.702 855.049L383.434 785.242L381.818 786.211L503.702 856.988L625.586 785.565L623.97 784.595L503.702 855.049Z" fill="url(#paint41_radial_1:1019)"/>
</g>
<path d="M365.653 634.962V758.741L487.537 687.318V563.216L365.653 634.962Z" fill="url(#paint42_linear_1:1019)"/>
<path d="M365.653 634.962V758.741L243.769 687.641V563.862L365.653 634.962Z" fill="#330A66"/>
<path d="M243.769 563.862L365.653 634.962L487.537 563.216L365.653 492.116L243.769 563.862Z" fill="#45108A"/>
<g style="mix-blend-mode:screen">
<path d="M365.653 633.023L245.385 562.892L243.769 563.862L365.653 634.962L487.537 563.216L485.921 562.246L365.653 633.023Z" fill="url(#paint43_radial_1:1019)"/>
</g>
<path d="M503.702 815.944V839.537L625.586 768.113V744.198L503.702 815.944Z" fill="url(#paint44_linear_1:1019)"/>
<path d="M503.702 815.945V839.537L381.818 768.76V744.844L503.702 815.945Z" fill="#330A66"/>
<path d="M381.818 744.844L503.702 815.945L625.586 744.198L503.379 673.421L381.818 744.844Z" fill="#45108A"/>
<path d="M393.456 735.472L503.702 799.786L613.947 735.149L503.702 670.836L393.456 735.472ZM503.702 803.017C503.379 803.017 503.055 803.017 502.732 802.694L389.254 736.765C388.607 736.442 388.607 735.795 388.607 735.472C388.607 734.826 388.93 734.503 389.254 734.179L502.409 667.604C503.055 667.281 503.379 667.281 504.025 667.604L617.504 733.856C618.15 734.179 618.15 734.826 618.15 735.149C618.15 735.795 617.827 736.118 617.504 736.442L504.348 802.694C504.348 803.017 504.025 803.017 503.702 803.017Z" fill="#43E8E1"/>
<path d="M393.456 721.252L503.702 785.565L613.947 720.929L503.702 656.616L393.456 721.252ZM503.702 788.797C503.379 788.797 503.055 788.797 502.732 788.474L389.254 722.545C388.607 722.222 388.607 721.575 388.607 721.252C388.607 720.606 388.93 720.283 389.254 719.959L502.409 653.384C503.055 653.061 503.379 653.061 504.025 653.384L617.504 719.636C618.15 719.959 618.15 720.606 618.15 720.929C618.15 721.575 617.827 721.898 617.504 722.222L504.348 788.474C504.348 788.797 504.025 788.797 503.702 788.797Z" fill="#43E8E1"/>
<path d="M393.456 707.032L503.702 771.345L613.947 706.708L503.702 642.395L393.456 707.032ZM503.702 774.577C503.378 774.577 503.055 774.577 502.732 774.254L389.577 708.324C388.93 708.001 388.93 707.355 388.93 707.032C388.93 706.385 389.253 706.062 389.577 705.739L502.732 639.163C503.378 638.84 503.702 638.84 504.348 639.163L617.827 705.416C618.473 705.739 618.473 706.385 618.473 706.708C618.473 707.355 618.15 707.678 617.827 708.001L504.348 774.577C504.348 774.577 504.025 774.577 503.702 774.577Z" fill="#43E8E1"/>
<path d="M393.456 692.811L503.702 757.125L613.947 692.488L503.702 628.175L393.456 692.811ZM503.702 760.68C503.379 760.68 503.055 760.68 502.732 760.357L389.254 694.427C388.607 694.104 388.607 693.458 388.607 693.135C388.607 692.488 388.93 692.165 389.254 691.842L502.409 625.266C503.055 624.943 503.379 624.943 504.025 625.266L617.504 691.519C618.15 691.842 618.15 692.488 618.15 692.811C618.15 693.458 617.827 693.781 617.504 694.104L504.348 760.357C504.348 760.357 504.025 760.68 503.702 760.68Z" fill="#43E8E1"/>
<g opacity="0.5">
<path opacity="0.5" d="M393.456 678.915L503.702 743.228L613.947 678.592L503.702 614.278L393.456 678.915ZM503.702 746.46C503.379 746.46 503.055 746.46 502.732 746.137L389.254 680.208C388.607 679.885 388.607 679.238 388.607 678.915C388.607 678.269 388.93 677.945 389.254 677.622L502.409 611.047C503.055 610.723 503.379 610.723 504.025 611.047L617.504 677.299C618.15 677.622 618.15 678.269 618.15 678.592C618.15 679.238 617.827 679.561 617.504 679.885L504.348 746.137C504.348 746.46 504.025 746.46 503.702 746.46Z" fill="#43E8E1"/>
</g>
<path d="M503.702 715.758V736.118L625.586 664.695V644.011L503.702 715.758Z" fill="url(#paint45_linear_1:1019)"/>
<path d="M503.702 715.758V736.118L381.818 665.341V644.658L503.702 715.758Z" fill="#330A66"/>
<path d="M381.818 644.658L503.702 715.758L625.586 644.011L503.379 573.234L381.818 644.658Z" fill="#45108A"/>
<g style="mix-blend-mode:screen">
<path d="M503.702 713.819L383.434 643.688L381.818 644.658L503.702 715.758L625.586 644.012L623.97 643.042L503.702 713.819Z" fill="url(#paint46_radial_1:1019)"/>
</g>
<path opacity="0.2" d="M625.586 664.695V644.011L538.618 695.074L556.077 705.416L625.586 664.695Z" fill="url(#paint47_radial_1:1019)"/>
<path opacity="0.3" d="M503.702 715.758V839.537L625.586 768.113V644.011L503.702 715.758Z" fill="url(#paint48_linear_1:1019)"/>
<path opacity="0.1" d="M503.702 715.758V839.537L381.818 768.76V644.658L503.702 715.758Z" fill="#330A66"/>
<path d="M786.266 551.581V675.36L908.474 603.937V479.834L786.266 551.581Z" fill="url(#paint49_linear_1:1019)"/>
<path d="M786.59 551.581V675.36L664.705 604.26V480.481L786.59 551.581Z" fill="#330A66"/>
<path d="M664.705 480.481L786.59 551.581L908.474 479.835L786.266 408.734L664.705 480.481Z" fill="#45108A"/>
<path d="M786.59 549.642L666.322 479.511L664.705 480.481L786.59 551.581L908.474 479.835L906.857 478.865L786.59 549.642Z" fill="url(#paint50_radial_1:1019)"/>
<g style="mix-blend-mode:screen">
<path d="M774.628 567.417L652.42 496.316L530.859 568.063V691.842L652.42 762.942H652.743L774.628 691.519V567.417Z" fill="url(#paint51_linear_1:1019)"/>
</g>
<path d="M766.868 804.955V828.548L888.753 757.124V733.209L766.868 804.955Z" fill="url(#paint52_linear_1:1019)"/>
<path d="M766.868 804.956V828.548L644.984 757.771V733.856L766.868 804.956Z" fill="url(#paint53_linear_1:1019)"/>
<path d="M644.984 733.855L766.868 804.956L888.752 733.209L766.545 662.432L644.984 733.855Z" fill="url(#paint54_linear_1:1019)"/>
<g style="mix-blend-mode:screen">
<path d="M766.868 803.017L646.601 732.886L644.984 733.856L766.868 804.956L888.752 733.209L887.136 732.24L766.868 803.017Z" fill="url(#paint55_radial_1:1019)"/>
</g>
<path d="M766.868 771.345V795.26L888.753 723.837V699.922L766.868 771.345Z" fill="url(#paint56_linear_1:1019)"/>
<path d="M766.868 771.345V795.26L644.984 724.16V700.568L766.868 771.345Z" fill="url(#paint57_linear_1:1019)"/>
<path d="M644.984 700.568L766.868 771.345L888.752 699.921L766.545 628.821L644.984 700.568Z" fill="url(#paint58_linear_1:1019)"/>
<g style="mix-blend-mode:screen">
<path d="M766.868 769.406L646.601 699.598L644.984 700.568L766.868 771.345L888.752 699.921L887.136 698.952L766.868 769.406Z" fill="url(#paint59_radial_1:1019)"/>
</g>
<path d="M766.868 738.057V761.973L888.753 690.226V666.634L766.868 738.057Z" fill="url(#paint60_linear_1:1019)"/>
<path d="M766.868 738.057V761.972L644.984 690.872V667.28L766.868 738.057Z" fill="url(#paint61_linear_1:1019)"/>
<path d="M644.984 667.28L766.868 738.057L888.752 666.634L766.545 595.533L644.984 667.28Z" fill="url(#paint62_linear_1:1019)"/>
<g style="mix-blend-mode:screen">
<path d="M766.868 736.118L646.601 666.31L644.984 667.28L766.868 738.057L888.752 666.634L887.136 665.664L766.868 736.118Z" fill="url(#paint63_radial_1:1019)"/>
</g>
<path d="M766.868 704.769V728.361L888.753 656.938V633.022L766.868 704.769Z" fill="url(#paint64_linear_1:1019)"/>
<path d="M766.868 704.769V728.362L644.984 657.585V633.669L766.868 704.769Z" fill="url(#paint65_linear_1:1019)"/>
<path d="M644.984 633.669L766.868 704.769L888.752 633.023L766.545 562.246L644.984 633.669Z" fill="url(#paint66_linear_1:1019)"/>
<path d="M664.059 633.669L766.868 573.234L869.354 633.022L766.868 693.458L664.059 633.669Z" fill="#45108A"/>
<path d="M766.868 578.081L865.475 635.608L869.354 633.022L766.868 573.234L664.059 633.669L668.262 636.254L766.868 578.081Z" fill="url(#paint67_linear_1:1019)"/>
<path d="M766.868 578.081L865.475 635.608L869.355 633.022L766.868 573.234V578.081Z" fill="#330A66"/>
<g style="mix-blend-mode:screen">
<path d="M766.868 702.83L646.601 632.7L644.984 633.669L766.868 704.769L888.752 633.023L887.136 632.053L766.868 702.83Z" fill="url(#paint68_radial_1:1019)"/>
</g>
<path d="M731.952 658.554L739.065 654.353C737.125 653.383 735.185 652.09 732.922 650.798L730.012 649.182L722.9 653.06C721.93 653.706 720.313 653.706 719.343 653.06L713.201 649.505C712.231 648.859 712.231 648.212 713.201 647.566L720.313 643.688L713.201 639.486C712.231 638.84 712.231 638.194 713.201 637.547L773.334 602.643C774.304 601.997 775.921 601.997 776.891 602.643L784.003 606.845L791.116 602.967C792.086 602.32 793.702 602.32 794.672 602.967L800.815 606.522C801.785 607.168 801.785 607.814 800.815 608.461L793.702 612.339L800.492 616.217C801.462 616.54 802.108 617.187 802.755 617.51L809.867 613.309C810.837 612.662 812.454 612.662 813.424 613.309L819.566 616.863C820.536 617.51 820.536 618.156 819.566 618.803L811.807 623.327C813.424 624.943 814.717 626.559 815.363 628.175C816.01 630.114 816.01 632.053 815.04 633.992C814.07 636.254 812.13 637.87 809.221 639.809C806.958 641.102 803.725 642.072 800.492 642.718C795.965 643.364 791.116 643.364 786.59 642.395C789.499 645.304 790.469 648.212 789.823 650.798C789.176 653.706 786.913 655.969 783.357 658.231C780.447 659.847 776.891 661.14 773.011 661.786C768.808 662.432 764.929 662.755 760.726 662.432C756.846 662.109 752.966 661.14 749.41 659.2L741.974 663.402C741.004 664.048 739.388 664.048 738.418 663.402L732.275 659.847C730.982 659.847 730.982 659.2 731.952 658.554ZM776.891 615.248L762.019 623.65L770.425 628.498C775.598 631.407 778.831 633.023 780.124 633.669C782.71 634.639 784.973 635.285 787.56 635.285C790.146 635.285 792.409 634.639 794.349 633.669C796.289 632.376 797.259 631.407 797.582 630.114C797.582 628.821 796.935 627.529 794.995 625.913C793.702 624.943 790.146 623.004 784.003 619.449L776.891 615.248ZM751.673 629.791L734.538 639.486L746.5 646.273C751.027 648.859 754.26 650.475 755.876 651.121C758.139 652.09 760.402 652.414 762.989 652.414C765.575 652.414 767.838 651.767 770.101 650.475C772.041 649.505 773.011 648.212 773.658 646.919C773.981 645.627 773.658 644.334 772.364 643.041C771.071 641.749 767.838 639.163 761.696 635.931L751.673 629.791Z" fill="#43E8E1"/>
<path d="M815.04 628.498C814.394 626.882 813.424 625.266 811.484 623.65L813.1 622.681C812.13 622.034 810.514 622.034 809.544 622.681L802.431 626.882C801.785 626.559 800.815 625.913 800.168 625.589L793.379 621.711L800.492 617.833C800.815 617.51 801.138 617.51 801.138 617.187C800.815 617.187 800.815 616.864 800.492 616.864L793.702 612.985L794.349 612.662C793.379 612.016 791.763 612.016 790.793 612.662L783.68 616.54L776.567 612.339C775.598 611.693 773.981 611.693 773.011 612.339L719.02 643.365L719.99 644.011L712.877 647.889C712.554 648.212 712.231 648.212 712.231 648.535L712.554 648.859L719.667 653.06L719.02 653.383C719.99 654.03 721.606 654.03 722.576 653.383L729.689 649.505L732.599 651.121C734.862 652.414 736.802 653.706 738.741 654.676L731.629 658.877C731.305 659.201 730.982 659.201 730.982 659.524L732.275 660.493C734.538 661.786 736.478 663.079 738.418 664.048L737.771 664.371C738.741 665.018 740.358 665.018 741.328 664.371L748.764 660.17C752.32 661.786 756.2 662.756 760.079 663.402C763.959 663.725 768.162 663.725 772.365 662.756C776.567 662.109 779.8 660.816 782.71 659.201C784.973 657.908 786.59 656.292 787.883 654.676C788.53 654.03 788.53 653.706 788.853 652.737C788.853 652.414 789.176 652.091 789.176 651.767C789.823 648.859 788.853 646.273 785.943 643.365C790.469 644.334 794.996 644.334 799.845 643.688C803.078 643.041 805.988 642.072 808.574 640.779C811.161 639.486 812.777 637.87 813.747 636.255C813.1 635.285 812.454 634.315 811.484 633.669L815.363 631.407C815.363 630.114 815.363 629.468 815.04 628.498ZM773.658 646.92C773.334 648.212 772.041 649.505 770.101 650.475C767.838 651.767 765.575 652.414 762.989 652.414C760.402 652.414 758.139 652.091 755.876 651.121C754.26 650.475 751.35 648.859 746.501 646.273L734.538 639.486L751.673 629.791L762.019 635.931C767.838 639.486 771.395 641.749 772.688 643.041C773.981 644.334 774.304 645.627 773.658 646.92ZM794.672 633.669C792.732 634.962 790.469 635.608 787.883 635.285C785.297 635.285 782.71 634.639 780.447 633.669C779.154 633.023 775.921 631.407 770.748 628.498L762.342 623.65L777.214 615.248L784.65 619.449C790.793 623.004 794.349 625.266 795.642 625.913C797.582 627.205 798.552 628.821 798.229 630.114C797.905 631.407 796.612 632.7 794.672 633.669Z" fill="url(#paint69_radial_1:1019)"/>
<path d="M648.541 329.231V453.334L770.425 381.587V257.808L648.541 329.231Z" fill="url(#paint70_linear_1:1019)"/>
<path d="M648.54 329.232V453.334L526.656 382.234V258.455L648.54 329.232Z" fill="#330A66"/>
<path d="M526.656 258.455L648.54 329.232L770.425 257.808L648.217 186.708L526.656 258.455Z" fill="#45108A"/>
<g style="mix-blend-mode:screen">
<path d="M648.54 327.292L528.273 257.485L526.656 258.455L648.54 329.232L770.425 257.808L768.808 256.839L648.54 327.292Z" fill="url(#paint71_radial_1:1019)"/>
</g>
<g style="mix-blend-mode:multiply">
<path d="M887.136 467.553C886.813 467.553 886.49 467.553 886.166 467.553L862.889 456.242C861.919 452.687 856.099 449.778 848.663 449.455L788.853 420.369L784.973 428.448L830.235 450.425L801.462 445.254C799.522 441.699 793.702 439.436 786.59 439.436C777.861 439.436 771.071 442.991 771.071 447.516C771.071 451.394 776.244 454.626 783.033 455.272L781.094 527.342C775.274 528.635 771.071 531.544 771.071 534.775C771.071 539.3 778.184 542.855 786.59 542.855C795.319 542.855 802.108 539.3 802.108 534.775C802.108 534.129 801.785 533.483 801.785 532.836L887.459 483.066C888.429 483.066 889.723 483.389 891.016 483.389C897.805 483.389 903.301 481.127 905.564 478.218L887.136 467.553ZM789.823 522.818L791.762 454.626C793.379 454.303 794.996 453.98 796.289 453.333L833.145 459.797C833.468 460.443 834.115 461.09 834.762 461.413L828.295 467.23C827.972 467.23 827.326 467.23 827.002 467.23C818.273 467.23 811.484 470.785 811.484 475.31C811.484 477.572 813.424 479.834 816.657 481.127L789.823 522.818ZM800.815 522.818L826.032 483.712C826.356 483.712 826.679 483.712 827.002 483.712C835.731 483.712 842.521 480.157 842.521 475.633C842.521 473.694 840.904 471.755 838.641 470.462L844.461 465.291C845.43 465.291 846.724 465.614 847.694 465.614C851.25 465.614 854.806 464.968 857.393 463.675L876.144 472.724C875.497 473.694 875.174 474.34 875.174 475.31C875.174 476.602 875.821 477.895 876.791 478.865L800.815 522.818Z" fill="#BCBCD6"/>
</g>
<g opacity="0.7">
<path opacity="0.7" d="M805.622 345.605L780.591 409.385L790.824 413.398L815.855 349.618L805.622 345.605Z" fill="#8770B8"/>
<path opacity="0.5" d="M806.861 348.511L784.186 406.274L788.399 407.927L811.075 350.164L806.861 348.511Z" fill="#8770B8"/>
</g>
<g opacity="0.7">
<path opacity="0.7" d="M755.553 464.645C753.29 464.645 751.35 463.352 750.38 461.09L727.749 400.654C727.426 399.362 727.426 398.069 727.749 396.776L748.763 341.189C748.763 340.866 749.087 340.866 749.087 340.542L780.77 283.016L790.469 288.187L759.109 345.067L739.064 398.392L759.432 452.687L825.385 441.052L827.325 451.717L756.846 463.998C756.199 464.645 755.876 464.645 755.553 464.645Z" fill="#8770B8"/>
<path opacity="0.5" d="M754.906 460.12C753.936 460.12 752.966 459.473 752.643 458.504L730.012 398.069C729.689 397.422 729.689 397.099 730.012 396.453L751.027 340.865V340.542L781.093 285.924L784.973 288.187L755.229 342.481L734.538 397.422L756.199 455.595L821.829 443.961L822.476 448.485L755.229 460.443C755.229 460.12 755.229 460.12 754.906 460.12Z" fill="#8770B8"/>
</g>
<g opacity="0.7">
<path opacity="0.7" d="M846.4 390.313C844.784 390.313 843.49 389.666 842.52 388.697L808.251 352.824L757.169 348.622L758.139 337.634L811.16 341.835C812.454 341.835 813.747 342.482 814.717 343.451L846.723 377.062L888.106 343.774L894.895 352.5L849.633 388.697C848.663 389.99 847.37 390.313 846.4 390.313Z" fill="#8770B8"/>
<path opacity="0.5" d="M845.754 385.788C845.107 385.788 844.46 385.465 844.137 385.142L809.221 348.622L760.079 344.744L760.402 340.22L810.191 344.421C810.837 344.421 811.161 344.744 811.484 345.067L845.754 380.618L886.813 347.653L889.723 351.208L847.047 385.142C846.4 385.788 846.077 385.788 845.754 385.788Z" fill="#8770B8"/>
</g>
<g opacity="0.7">
<path opacity="0.7" d="M886.813 454.949L848.016 397.1L831.528 448.162L821.183 444.931L841.227 382.88C841.874 380.94 843.49 379.325 845.753 379.001C848.017 378.678 849.956 379.648 850.926 381.264L896.188 448.486L886.813 454.949Z" fill="#8770B8"/>
<path opacity="0.5" d="M846.4 388.697L828.942 442.992L824.739 441.699L843.813 382.88C844.137 381.91 844.783 381.587 845.753 381.264H846.077C846.723 381.264 847.37 381.587 848.016 382.233L891.339 446.547L887.459 449.132L846.4 388.697Z" fill="#8770B8"/>
</g>
<g opacity="0.7">
<path opacity="0.7" d="M785.62 416.814C784.973 416.814 784.326 416.814 783.68 416.491C782.387 415.844 781.093 414.875 780.77 413.582L754.259 348.946L681.84 353.793C679.254 354.117 676.991 352.501 676.344 349.915C675.697 347.653 676.667 344.744 678.607 343.452L782.71 280.431L788.529 289.803L703.501 341.189L757.169 337.634C759.432 337.311 761.695 338.927 762.665 340.866L788.529 403.887L845.107 378.355L849.633 388.374L787.883 416.168C787.236 416.814 786.266 416.814 785.62 416.814Z" fill="#8770B8"/>
<path opacity="0.5" d="M784.973 412.289C784.65 412.289 784.326 412.289 784.003 412.289C783.356 411.966 783.033 411.643 782.71 410.997L755.229 344.421L680.547 349.269C679.254 349.269 678.607 348.622 678.284 347.653C677.961 346.683 678.284 345.714 679.254 345.067L780.77 283.663L783.033 287.541L700.915 337.311L702.855 343.451L756.522 339.896C757.492 339.896 758.462 340.543 758.786 341.189L785.943 407.118L842.52 381.587L844.46 385.788L785.619 412.289C785.619 412.289 785.296 412.289 784.973 412.289Z" fill="#8770B8"/>
</g>
<g opacity="0.7">
<path opacity="0.7" d="M785.62 521.202C784.65 521.202 783.68 520.878 782.71 520.555L678.607 458.504C676.991 457.535 676.021 455.596 676.021 453.656V348.622H687.013V450.425L785.62 509.244L879.053 453.01L783.68 416.49L787.56 406.149L893.602 446.546C895.542 447.193 896.835 449.132 897.158 451.071C897.482 453.01 896.188 455.272 894.572 456.242L788.529 520.232C787.56 520.878 786.59 521.202 785.62 521.202Z" fill="#8770B8"/>
<path opacity="0.5" d="M784.973 516.677C784.65 516.677 784.327 516.677 783.68 516.354L679.577 454.303C678.931 453.98 678.607 453.01 678.607 452.364V350.562H683.134V451.071L784.973 511.83L885.843 451.071L787.236 413.582L788.853 409.381L891.662 448.486C892.309 448.809 892.956 449.455 892.956 450.425C892.956 451.394 892.632 452.041 891.986 452.687L785.943 516.677C785.943 516.677 785.297 516.677 784.973 516.677Z" fill="#8770B8"/>
</g>
<g opacity="0.7">
<path opacity="0.7" d="M888.753 353.147L798.875 297.882L816.333 346.037L805.988 349.592L783.357 286.571C782.71 284.309 783.357 282.046 784.973 280.431C786.913 278.815 789.176 278.815 791.439 280.107L894.572 343.451L888.753 353.147Z" fill="#8770B8"/>
<path opacity="0.5" d="M792.086 289.156L811.484 343.128L807.281 344.744L785.62 284.632C785.296 283.662 785.62 282.693 786.266 282.046C786.59 281.723 787.236 281.4 787.56 281.4C787.883 281.4 788.529 281.4 788.853 281.723L889.399 343.451L887.136 347.329L792.086 289.156Z" fill="#8770B8"/>
</g>
<g opacity="0.7">
<path opacity="0.7" d="M683.457 458.504L679.254 448.163L780.124 407.442V285.925H791.116V411.32C791.116 413.582 789.823 415.521 787.559 416.491L683.457 458.504Z" fill="#8770B8"/>
<path opacity="0.5" d="M682.81 448.809L782.71 408.735V287.864H787.236V410.027C787.236 410.997 786.59 411.643 785.943 412.29L684.427 453.011L682.81 448.809Z" fill="#8770B8"/>
</g>
<g opacity="0.7">
<path opacity="0.7" d="M685.293 344.455L677.381 352.083L728.552 405.122L736.464 397.494L685.293 344.455Z" fill="#8770B8"/>
<path opacity="0.5" d="M684.529 347.708L681.269 350.846L727.918 399.26L731.178 396.121L684.529 347.708Z" fill="#8770B8"/>
</g>
<g opacity="0.7">
<path opacity="0.7" d="M760.402 462.06L751.026 456.242L780.77 408.411C782.063 406.149 785.296 405.179 787.559 406.149L835.408 427.156L830.882 437.175L787.559 418.107L760.402 462.06Z" fill="#8770B8"/>
<path opacity="0.5" d="M754.906 453.98L783.033 409.058C783.356 408.411 784.003 408.088 784.973 408.088C785.296 408.088 785.62 408.088 785.943 408.411L830.558 428.125L828.618 432.327L785.62 413.259L758.462 456.566L754.906 453.98Z" fill="#8770B8"/>
</g>
<g opacity="0.7">
<path opacity="0.7" d="M785.62 521.202C783.68 521.202 781.74 519.909 780.77 518.293L752.32 464.322L680.871 458.828C678.607 458.828 676.991 457.212 676.021 455.273C675.374 453.334 675.698 451.071 676.991 449.456L728.719 394.514L736.801 401.948L692.833 448.486L755.876 453.334C757.816 453.334 759.432 454.626 760.402 456.242L785.62 504.073L828.295 429.418C829.589 427.156 832.175 426.186 834.761 426.833L885.843 443.638V352.824H810.514V341.836H891.339C894.249 341.836 896.835 344.421 896.835 347.33V451.395C896.835 453.011 895.865 454.95 894.572 455.919C893.279 456.889 891.339 457.212 889.723 456.566L835.731 438.791L790.146 517.97C789.499 520.233 787.56 521.202 785.62 521.202Z" fill="#8770B8"/>
<path opacity="0.5" d="M784.973 516.677C784.327 516.677 783.357 516.354 783.034 515.385L753.613 459.797L680.547 454.303C679.577 454.303 678.931 453.657 678.608 453.01C678.284 452.041 678.608 451.395 678.931 450.748L728.396 398.069L731.629 401.301L685.397 450.425L754.906 455.596C755.553 455.596 756.523 456.242 756.846 456.889L784.973 509.891L830.559 430.388C830.882 429.741 831.852 429.095 832.499 429.095C832.822 429.095 832.822 429.095 833.145 429.095L888.429 447.193V348.622H813.1V344.098H890.693C891.986 344.098 892.956 345.067 892.956 346.36V450.425C892.956 451.071 892.632 451.718 891.986 452.364C891.662 452.687 891.016 452.687 890.693 452.687C890.369 452.687 890.369 452.687 890.046 452.687L833.468 434.266L786.59 516.031C786.59 516.354 785.62 516.677 784.973 516.677Z" fill="#8770B8"/>
</g>
<path d="M697.682 453.333C697.682 462.383 690.246 469.816 681.194 469.816C672.141 469.816 664.705 462.383 664.705 453.333C664.705 444.284 672.141 436.851 681.194 436.851C690.569 437.174 697.682 444.284 697.682 453.333Z" fill="url(#paint72_radial_1:1019)"/>
<path d="M697.682 348.299C697.682 357.348 690.246 364.781 681.194 364.781C672.141 364.781 664.705 357.348 664.705 348.299C664.705 339.25 672.141 331.817 681.194 331.817C690.569 332.14 697.682 339.25 697.682 348.299Z" fill="url(#paint73_radial_1:1019)"/>
<path d="M802.108 411.32C802.108 420.369 794.672 427.802 785.62 427.802C776.567 427.802 769.131 420.369 769.131 411.32C769.131 402.271 776.567 394.837 785.62 394.837C794.672 395.161 802.108 402.271 802.108 411.32Z" fill="url(#paint74_radial_1:1019)"/>
<path d="M772.041 459.151C772.041 468.2 764.605 475.633 755.553 475.633C746.5 475.633 739.064 468.2 739.064 459.151C739.064 450.102 746.5 442.668 755.553 442.668C764.928 442.668 772.041 450.102 772.041 459.151Z" fill="url(#paint75_radial_1:1019)"/>
<path d="M907.827 348.299C907.827 357.348 900.391 364.781 891.339 364.781C882.287 364.781 874.851 357.348 874.851 348.299C874.851 339.25 882.287 331.817 891.339 331.817C900.715 332.14 907.827 339.25 907.827 348.299Z" fill="url(#paint76_radial_1:1019)"/>
<path d="M907.827 451.718C907.827 460.767 900.391 468.2 891.339 468.2C882.287 468.2 874.851 460.767 874.851 451.718C874.851 442.669 882.287 435.235 891.339 435.235C900.715 435.559 907.827 442.669 907.827 451.718Z" fill="url(#paint77_radial_1:1019)"/>
<path d="M802.108 515.708C802.108 524.757 794.672 532.19 785.62 532.19C776.567 532.19 769.131 524.757 769.131 515.708C769.131 506.659 776.567 499.226 785.62 499.226C794.672 499.226 802.108 506.659 802.108 515.708Z" fill="url(#paint78_radial_1:1019)"/>
<path d="M802.108 285.278C802.108 294.328 794.672 301.761 785.62 301.761C776.567 301.761 769.131 294.328 769.131 285.278C769.131 276.229 776.567 268.796 785.62 268.796C794.672 269.119 802.108 276.229 802.108 285.278Z" fill="url(#paint79_radial_1:1019)"/>
<path d="M827.002 347.653C827.002 356.702 819.566 364.135 810.514 364.135C801.461 364.135 794.025 356.702 794.025 347.653C794.025 338.604 801.461 331.17 810.514 331.17C819.889 331.17 827.002 338.604 827.002 347.653Z" fill="url(#paint80_radial_1:1019)"/>
<path d="M862.565 384.819C862.565 393.868 855.129 401.301 846.077 401.301C837.024 401.301 829.588 393.868 829.588 384.819C829.588 375.77 837.024 368.336 846.077 368.336C855.452 368.336 862.565 375.77 862.565 384.819Z" fill="url(#paint81_radial_1:1019)"/>
<path d="M842.844 445.254C842.844 454.303 835.408 461.736 826.356 461.736C817.303 461.736 809.867 454.303 809.867 445.254C809.867 436.205 817.303 428.771 826.356 428.771C835.408 429.095 842.844 436.205 842.844 445.254Z" fill="url(#paint82_radial_1:1019)"/>
<path d="M749.41 398.392C749.41 407.442 741.974 414.875 732.922 414.875C723.869 414.875 716.433 407.442 716.433 398.392C716.433 389.343 723.869 381.91 732.922 381.91C742.297 382.233 749.41 389.343 749.41 398.392Z" fill="url(#paint83_radial_1:1019)"/>
<path d="M770.424 342.805C770.424 351.854 762.988 359.287 753.936 359.287C744.884 359.287 737.448 351.854 737.448 342.805C737.448 333.756 744.884 326.323 753.936 326.323C763.312 326.323 770.424 333.756 770.424 342.805Z" fill="url(#paint84_radial_1:1019)"/>
<path d="M369.209 330.524V454.303L491.093 382.88V259.101L369.209 330.524Z" fill="url(#paint85_linear_1:1019)"/>
<path d="M369.209 330.524V454.303L247.325 383.526V259.424L369.209 330.524Z" fill="#330A66"/>
<path d="M247.325 259.424L369.209 330.524L491.093 259.101L368.886 188L247.325 259.424Z" fill="#45108A"/>
<g style="mix-blend-mode:screen">
<path d="M369.209 328.585L248.941 258.454L247.325 259.424L369.209 330.524L491.093 259.101L489.477 258.131L369.209 328.585Z" fill="url(#paint86_radial_1:1019)"/>
</g>
<path d="M503.702 411.32V535.422L625.586 463.675V339.896L503.702 411.32Z" fill="url(#paint87_linear_1:1019)"/>
<path d="M503.702 411.32V535.422L381.818 464.321V340.542L503.702 411.32Z" fill="#330A66"/>
<path d="M381.818 340.543L503.702 411.32L625.586 339.896L503.379 268.796L381.818 340.543Z" fill="#45108A"/>
<g style="mix-blend-mode:screen">
<path d="M503.702 409.381L383.434 339.573L381.818 340.543L503.702 411.32L625.586 339.896L623.97 338.927L503.702 409.381Z" fill="url(#paint88_radial_1:1019)"/>
</g>
<path d="M644.984 492.115V616.217L766.868 544.471V420.692L644.984 492.115Z" fill="url(#paint89_linear_1:1019)"/>
<path d="M644.984 492.115V616.218L523.1 545.117V421.338L644.984 492.115Z" fill="#330A66"/>
<path d="M523.1 421.338L644.984 492.115L766.868 420.692L644.984 349.592L523.1 421.338Z" fill="#45108A"/>
<g style="mix-blend-mode:screen">
<path d="M644.984 490.176L524.716 420.369L523.1 421.338L644.984 492.115L766.868 420.692L765.252 419.722L644.984 490.176Z" fill="url(#paint90_radial_1:1019)"/>
</g>
<path opacity="0.2" d="M646.277 491.469L644.984 492.115V502.78L731.629 553.197L644.984 604.26V616.217L752.32 553.197L646.277 491.469Z" fill="url(#paint91_radial_1:1019)"/>
<path opacity="0.2" d="M644.984 585.839L700.592 553.843C701.562 553.197 701.562 552.551 700.592 551.904L693.479 547.703L700.592 543.825C701.562 543.178 701.562 542.532 700.592 541.886L694.449 538.331C693.479 537.684 691.863 537.684 690.893 538.331L683.78 542.209L680.87 540.593C678.607 539.3 676.668 538.007 674.728 537.038L681.84 532.837C682.81 532.19 682.81 531.544 681.84 530.897L675.698 527.342C674.728 526.696 673.111 526.696 672.141 527.342L664.705 531.544C661.149 529.928 657.27 528.958 653.39 528.312C650.804 527.989 648.217 527.989 645.631 528.312V539.623C647.247 538.977 648.864 538.654 650.804 538.654C653.39 538.654 655.653 538.977 657.916 539.947C659.533 540.593 662.442 542.209 667.292 544.794L679.254 551.581L662.119 561.277L651.773 555.136C649.187 553.843 647.247 552.551 645.631 551.581V563.862L651.45 567.417L645.631 570.972V585.839H644.984Z" fill="url(#paint92_radial_1:1019)"/>
<path d="M227.604 412.612V536.715L349.488 464.968V341.189L227.604 412.612Z" fill="url(#paint93_linear_1:1019)"/>
<path d="M227.603 412.612V536.714L105.719 465.614V341.835L227.603 412.612Z" fill="#330A66"/>
<path d="M105.719 341.835L227.603 412.612L349.488 341.189L227.603 270.089L105.719 341.835Z" fill="#45108A"/>
<g style="mix-blend-mode:screen">
<path d="M227.603 410.673L107.659 340.542L105.719 341.835L227.603 412.612L349.488 341.189L347.871 340.219L227.603 410.673Z" fill="url(#paint94_radial_1:1019)"/>
</g>
<path d="M365.653 493.408V617.51L487.537 545.763V421.984L365.653 493.408Z" fill="url(#paint95_linear_1:1019)"/>
<path d="M365.653 493.408V617.51L243.769 546.41V422.631L365.653 493.408Z" fill="#330A66"/>
<path d="M243.769 422.631L365.653 493.408L487.537 421.984L365.653 350.884L243.769 422.631Z" fill="#45108A"/>
<path d="M365.653 557.399V616.864L487.537 546.087V486.298L365.653 557.399Z" fill="url(#paint96_linear_1:1019)"/>
<path d="M373.089 603.937V561.6L479.778 499.226V541.562L373.089 603.937ZM378.908 564.832V593.918L474.282 538.331V509.244L378.908 564.832Z" fill="url(#paint97_linear_1:1019)"/>
<path d="M365.976 557.399V616.864L243.769 545.764V486.298L365.976 557.399Z" fill="url(#paint98_linear_1:1019)"/>
<path d="M254.114 539.947V504.073L355.631 563.216V599.089L254.114 539.947Z" fill="#25054D"/>
<path d="M358.54 603.937L251.204 541.562V499.226L358.54 561.6V603.937ZM257.024 538.331L352.721 594.241V565.155L257.024 509.567V538.331Z" fill="url(#paint99_linear_1:1019)"/>
<path d="M341.729 566.771L345.608 569.033V564.508L341.729 562.246V566.771Z" fill="#2AF6FF"/>
<path d="M334.293 562.569L338.172 564.831V560.307L334.293 558.045V562.569Z" fill="#2AF6FF"/>
<path d="M326.857 558.368L330.737 560.63V556.105L326.857 553.843V558.368Z" fill="#4B61B8"/>
<path d="M319.421 554.167L323.301 556.429V551.904L319.421 549.642V554.167Z" fill="#25054D"/>
<path d="M312.308 549.965L316.188 552.227V547.703L312.308 545.441V549.965Z" fill="#25054D"/>
<path d="M304.873 545.441L308.752 547.703V543.502L304.873 541.239V545.441Z" fill="#4B61B8"/>
<path d="M297.437 541.239L301.316 543.502V538.977L297.437 536.715V541.239Z" fill="#4B61B8"/>
<path d="M290 537.038L293.88 539.3V534.776L290 532.513V537.038Z" fill="#4B61B8"/>
<path d="M282.565 532.836L286.444 535.099V530.574L282.565 528.312V532.836Z" fill="#25054D"/>
<path d="M275.129 528.635L279.332 530.897V526.373L275.129 524.11V528.635Z" fill="#4B61B8"/>
<path d="M268.016 524.434L271.896 526.696V522.171L268.016 519.909V524.434Z" fill="#2AF6FF"/>
<path d="M260.58 519.909L264.46 522.171V517.647L260.58 515.385V519.909Z" fill="#2AF6FF"/>
<path d="M341.729 574.85L345.608 577.112V572.588L341.729 570.326V574.85Z" fill="#4B61B8"/>
<path d="M334.293 570.649L338.172 572.911V568.386L334.293 566.124V570.649Z" fill="#2AF6FF"/>
<path d="M326.857 566.447L330.737 568.709V564.185L326.857 561.923V566.447Z" fill="#2AF6FF"/>
<path d="M319.421 562.246L323.301 564.508V559.984L319.421 557.722V562.246Z" fill="#25054D"/>
<path d="M312.308 557.721L316.188 559.984V555.782L312.308 553.197V557.721Z" fill="#2AF6FF"/>
<path d="M304.873 553.52L308.752 555.782V551.258L304.873 548.995V553.52Z" fill="#2AF6FF"/>
<path d="M297.437 549.319L301.316 551.581V547.057L297.437 544.794V549.319Z" fill="#2AF6FF"/>
<path d="M290 545.117L293.88 547.38V542.855L290 540.593V545.117Z" fill="#4B61B8"/>
<path d="M282.565 540.916L286.444 543.178V538.654L282.565 536.391V540.916Z" fill="#4B61B8"/>
<path d="M275.129 536.714L279.332 538.977V534.452L275.129 532.19V536.714Z" fill="#4B61B8"/>
<path d="M268.016 532.19L271.896 534.452V529.928L268.016 527.666V532.19Z" fill="#4B61B8"/>
<path d="M260.58 527.989L264.46 530.251V525.726L260.58 523.464V527.989Z" fill="#4B61B8"/>
<path d="M341.729 582.93L345.608 585.192V580.668L341.729 578.405V582.93Z" fill="#2AF6FF"/>
<path d="M334.293 578.728L338.172 580.991V576.466L334.293 574.204V578.728Z" fill="#4B61B8"/>
<path d="M326.857 574.204L330.737 576.466V571.942L326.857 569.679V574.204Z" fill="#4B61B8"/>
<path d="M319.421 570.003L323.301 572.265V567.74L319.421 565.478V570.003Z" fill="#4B61B8"/>
<path d="M312.308 565.801L316.188 568.063V563.539L312.308 561.276V565.801Z" fill="#4B61B8"/>
<path d="M304.873 561.6L308.752 563.862V559.337L304.873 557.075V561.6Z" fill="#4B61B8"/>
<path d="M297.437 557.399L301.316 559.661V555.136L297.437 552.874V557.399Z" fill="#25054D"/>
<path d="M290 552.874L293.88 555.459V550.935L290 548.673V552.874Z" fill="#2AF6FF"/>
<path d="M282.565 548.672L286.444 550.935V546.41L282.565 544.148V548.672Z" fill="#4B61B8"/>
<path d="M275.129 544.471L279.332 546.734V542.209L275.129 539.947V544.471Z" fill="#4B61B8"/>
<path d="M268.016 540.27L271.896 542.532V538.007L268.016 535.745V540.27Z" fill="#2AF6FF"/>
<path d="M260.58 536.068L264.46 538.331V533.806L260.58 531.544V536.068Z" fill="#2AF6FF"/>
<path d="M388.93 566.771L385.051 569.033V564.508L388.93 562.246V566.771Z" fill="#2AF6FF"/>
<path d="M396.366 562.569L392.487 564.831V560.307L396.366 558.045V562.569Z" fill="#25054D"/>
<path d="M403.802 558.368L399.923 560.63V556.105L403.802 553.843V558.368Z" fill="#4B61B8"/>
<path d="M411.238 554.167L407.035 556.429V551.904L411.238 549.642V554.167Z" fill="#25054D"/>
<path d="M418.351 549.965L414.471 552.227V547.703L418.351 545.441V549.965Z" fill="#25054D"/>
<path d="M425.787 545.441L421.907 547.703V543.502L425.787 541.239V545.441Z" fill="#4B61B8"/>
<path d="M433.223 541.239L429.343 543.502V538.977L433.223 536.715V541.239Z" fill="#4B61B8"/>
<path d="M440.658 537.038L436.779 539.3V534.776L440.658 532.513V537.038Z" fill="#4B61B8"/>
<path d="M448.094 532.836L444.215 535.099V530.574L448.094 528.312V532.836Z" fill="#25054D"/>
<path d="M455.53 528.635L451.327 530.897V526.373L455.53 524.11V528.635Z" fill="#25054D"/>
<path d="M462.643 524.434L458.763 526.696V522.171L462.643 519.909V524.434Z" fill="#2AF6FF"/>
<path d="M470.079 519.909L466.199 522.171V517.647L470.079 515.385V519.909Z" fill="#2AF6FF"/>
<path d="M388.93 574.85L385.051 577.112V572.588L388.93 570.326V574.85Z" fill="#4B61B8"/>
<path d="M396.366 570.649L392.487 572.911V568.386L396.366 566.124V570.649Z" fill="#25054D"/>
<path d="M403.802 566.447L399.923 568.709V564.185L403.802 561.923V566.447Z" fill="#2AF6FF"/>
<path d="M411.238 562.246L407.035 564.508V559.984L411.238 557.722V562.246Z" fill="#25054D"/>
<path d="M418.351 557.721L414.471 559.984V555.782L418.351 553.197V557.721Z" fill="#2AF6FF"/>
<path d="M425.787 553.52L421.907 555.782V551.258L425.787 548.995V553.52Z" fill="#2AF6FF"/>
<path d="M433.223 549.319L429.343 551.581V547.057L433.223 544.794V549.319Z" fill="#2AF6FF"/>
<path d="M440.658 545.117L436.779 547.38V542.855L440.658 540.593V545.117Z" fill="#4B61B8"/>
<path d="M448.094 540.916L444.215 543.178V538.654L448.094 536.391V540.916Z" fill="#4B61B8"/>
<path d="M455.53 536.714L451.327 538.977V534.452L455.53 532.19V536.714Z" fill="#4B61B8"/>
<path d="M462.643 532.19L458.763 534.452V529.928L462.643 527.666V532.19Z" fill="#4B61B8"/>
<path d="M470.079 527.989L466.199 530.251V525.726L470.079 523.464V527.989Z" fill="#4B61B8"/>
<path d="M388.93 582.93L385.051 585.192V580.668L388.93 578.405V582.93Z" fill="#2AF6FF"/>
<path d="M396.366 578.728L392.487 580.991V576.466L396.366 574.204V578.728Z" fill="#4B61B8"/>
<path d="M403.802 574.204L399.923 576.466V571.942L403.802 569.679V574.204Z" fill="#4B61B8"/>
<path d="M411.238 570.003L407.035 572.265V567.74L411.238 565.478V570.003Z" fill="#4B61B8"/>
<path d="M418.351 565.801L414.471 568.063V563.539L418.351 561.276V565.801Z" fill="#4B61B8"/>
<path d="M425.787 561.6L421.907 563.862V559.337L425.787 557.075V561.6Z" fill="#4B61B8"/>
<path d="M433.223 557.399L429.343 559.661V555.136L433.223 552.874V557.399Z" fill="#25054D"/>
<path d="M440.658 552.874L436.779 555.459V550.935L440.658 548.673V552.874Z" fill="#2AF6FF"/>
<path d="M448.094 548.672L444.215 550.935V546.41L448.094 544.148V548.672Z" fill="#4B61B8"/>
<path d="M455.53 544.471L451.327 546.734V542.209L455.53 539.947V544.471Z" fill="#4B61B8"/>
<path d="M462.643 540.27L458.763 542.532V538.007L462.643 535.745V540.27Z" fill="#4B61B8"/>
<path d="M470.079 536.068L466.199 538.331V533.806L470.079 531.544V536.068Z" fill="#2AF6FF"/>
<path d="M243.769 486.298L365.976 557.398L487.537 486.298L365.329 415.198L243.769 486.298Z" fill="url(#paint100_linear_1:1019)"/>
<path d="M365.653 534.776V554.49L478.808 488.561V468.846L365.653 534.776Z" fill="url(#paint101_linear_1:1019)"/>
<path d="M365.976 534.775V554.49L252.498 488.56V468.523L365.976 534.775Z" fill="url(#paint102_linear_1:1019)"/>
<path d="M365.653 493.408V553.196L487.537 482.096V422.631L365.653 493.408Z" fill="url(#paint103_linear_1:1019)"/>
<path d="M365.976 493.408V553.197L243.769 482.097V422.308L365.976 493.408Z" fill="url(#paint104_linear_1:1019)"/>
<path d="M254.114 475.956V440.406L355.631 499.548V535.098L254.114 475.956Z" fill="#25054D"/>
<path d="M358.54 540.269L251.204 477.895V435.558L358.54 497.932V540.269ZM257.024 474.34L352.721 530.25V501.164L257.024 445.576V474.34Z" fill="url(#paint105_linear_1:1019)"/>
<path d="M341.729 503.103L345.608 505.365V500.841L341.729 498.579V503.103Z" fill="#2AF6FF"/>
<path d="M334.293 498.901L338.172 501.164V496.639L334.293 494.377V498.901Z" fill="#2AF6FF"/>
<path d="M326.857 494.7L330.737 496.962V492.438L326.857 490.176V494.7Z" fill="#4B61B8"/>
<path d="M319.421 490.176L323.301 492.438V487.913L319.421 485.651V490.176Z" fill="#25054D"/>
<path d="M312.308 485.974L316.188 488.237V483.712L312.308 481.45V485.974Z" fill="#25054D"/>
<path d="M304.873 481.773L308.752 484.035V479.511L304.873 477.248V481.773Z" fill="#4B61B8"/>
<path d="M297.437 477.572L301.316 479.834V475.31L297.437 473.047V477.572Z" fill="#4B61B8"/>
<path d="M290 473.37L293.88 475.633V471.108L290 468.846V473.37Z" fill="#4B61B8"/>
<path d="M282.565 468.846L286.444 471.108V466.907L282.565 464.644V468.846Z" fill="#25054D"/>
<path d="M275.129 464.644L279.332 466.907V462.382L275.129 460.12V464.644Z" fill="#4B61B8"/>
<path d="M268.016 460.443L271.896 462.705V458.181L268.016 455.918V460.443Z" fill="#2AF6FF"/>
<path d="M260.58 456.242L264.46 458.504V453.979L260.58 451.717V456.242Z" fill="#2AF6FF"/>
<path d="M341.729 511.183L345.608 513.445V508.92L341.729 506.658V511.183Z" fill="#4B61B8"/>
<path d="M334.293 506.658L338.172 508.92V504.719L334.293 502.457V506.658Z" fill="#2AF6FF"/>
<path d="M326.857 502.457L330.737 504.719V500.194L326.857 497.932V502.457Z" fill="#2AF6FF"/>
<path d="M319.421 498.255L323.301 500.518V495.993L319.421 493.731V498.255Z" fill="#25054D"/>
<path d="M312.308 494.054L316.188 496.316V491.792L312.308 489.529V494.054Z" fill="#2AF6FF"/>
<path d="M304.873 489.852L308.752 492.115V487.59L304.873 485.328V489.852Z" fill="#2AF6FF"/>
<path d="M297.437 485.652L301.316 487.914V483.389L297.437 481.127V485.652Z" fill="#2AF6FF"/>
<path d="M290 481.127L293.88 483.389V478.864L290 476.602V481.127Z" fill="#4B61B8"/>
<path d="M282.565 476.925L286.444 479.187V474.663L282.565 472.4V476.925Z" fill="#4B61B8"/>
<path d="M275.129 472.724L279.332 474.986V470.462L275.129 468.199V472.724Z" fill="#4B61B8"/>
<path d="M268.016 468.523L271.896 470.785V466.26L268.016 463.998V468.523Z" fill="#4B61B8"/>
<path d="M260.58 464.321L264.46 466.583V462.059L260.58 459.797V464.321Z" fill="#4B61B8"/>
<path d="M341.729 518.94L345.608 521.202V516.677L341.729 514.415V518.94Z" fill="#2AF6FF"/>
<path d="M334.293 514.738L338.172 517V512.476L334.293 510.213V514.738Z" fill="#4B61B8"/>
<path d="M326.857 510.536L330.737 512.799V508.274L326.857 506.012V510.536Z" fill="#4B61B8"/>
<path d="M319.421 506.336L323.301 508.598V504.073L319.421 501.811V506.336Z" fill="#4B61B8"/>
<path d="M312.308 502.134L316.188 504.396V499.872L312.308 497.61V502.134Z" fill="#4B61B8"/>
<path d="M304.873 497.609L308.752 499.872V495.347L304.873 493.085V497.609Z" fill="#4B61B8"/>
<path d="M297.437 493.408L301.316 495.671V491.146L297.437 488.884V493.408Z" fill="#25054D"/>
<path d="M290 489.207L293.88 491.469V486.944L290 484.682V489.207Z" fill="#2AF6FF"/>
<path d="M282.565 485.005L286.444 487.268V482.743L282.565 480.481V485.005Z" fill="#4B61B8"/>
<path d="M275.129 480.804L279.332 483.066V478.542L275.129 476.279V480.804Z" fill="#4B61B8"/>
<path d="M268.016 476.279L271.896 478.542V474.34L268.016 472.078V476.279Z" fill="#2AF6FF"/>
<path d="M260.58 472.078L264.46 474.34V469.816L260.58 467.553V472.078Z" fill="#2AF6FF"/>
<g style="mix-blend-mode:screen">
<path d="M365.976 491.469L245.385 421.338L243.769 422.308L365.976 493.408L487.537 422.631L485.921 421.661L365.976 491.469Z" fill="url(#paint106_radial_1:1019)"/>
</g>
<path d="M275.452 423.6L365.006 475.633L455.53 423.277L365.976 371.245L275.452 423.6Z" fill="url(#paint107_linear_1:1019)"/>
<path d="M320.714 449.779L365.33 475.633L410.268 449.779L365.976 423.601L320.714 449.779Z" fill="url(#paint108_radial_1:1019)"/>
<g style="mix-blend-mode:screen">
<path d="M455.53 235.185L365.329 182.506L275.452 234.862V423.601L365.006 475.633L455.53 423.277V235.185Z" fill="url(#paint109_linear_1:1019)"/>
</g>
<path d="M503.702 574.527V698.306L625.586 626.882V502.78L503.702 574.527Z" fill="url(#paint110_linear_1:1019)"/>
<path d="M503.702 574.526V698.305L381.818 627.205V503.426L503.702 574.526Z" fill="#330A66"/>
<path d="M381.818 503.427L503.702 574.527L625.586 502.78L503.379 431.68L381.818 503.427Z" fill="#45108A"/>
<g style="mix-blend-mode:screen">
<path d="M503.702 572.587L383.434 502.457L381.818 503.426L503.702 574.527L625.586 502.78L623.97 501.811L503.702 572.587Z" fill="url(#paint111_radial_1:1019)"/>
</g>
<path d="M159.064 691.196L179.108 702.831L192.364 695.074L171.996 683.44L159.064 691.196Z" fill="#E2953F"/>
<path d="M96.0203 655L116.065 666.634L129.32 658.878L108.952 647.243L96.0203 655Z" fill="#E2953F"/>
<g style="mix-blend-mode:multiply">
<path d="M178.785 701.538L219.521 687.641L190.424 670.189L161.65 691.519L178.785 701.538Z" fill="url(#paint112_linear_1:1019)"/>
</g>
<g style="mix-blend-mode:multiply">
<path d="M116.065 664.695L156.801 650.798L127.704 633.346L98.9299 654.676L116.065 664.695Z" fill="url(#paint113_linear_1:1019)"/>
</g>
<path d="M160.034 620.419L139.342 608.461C122.854 599.089 109.599 606.522 109.599 625.59V648.536L127.057 658.554V641.426C127.057 630.761 134.816 626.236 144.192 631.73L155.831 638.517C165.207 644.011 172.966 656.938 172.966 667.927V685.055L190.424 695.074V672.128C189.777 653.06 176.522 630.114 160.034 620.419Z" fill="url(#paint114_linear_1:1019)"/>
<path d="M160.034 620.419L139.342 608.461C131.26 603.613 123.824 603.29 118.328 606.199L107.336 612.662L109.599 625.913V648.212L113.802 650.475L116.065 664.695L127.057 658.231V641.102C127.057 630.437 134.816 625.913 144.192 631.407L155.831 638.194C165.206 643.688 172.966 656.615 172.966 667.603V684.732L177.492 687.318L179.432 701.214L190.424 694.751V671.805C189.777 653.06 176.522 630.114 160.034 620.419Z" fill="url(#paint115_linear_1:1019)"/>
<path d="M150.981 626.236L130.29 614.278C120.914 608.784 112.832 609.108 107.336 613.309L109.599 626.236V648.536L113.802 650.798L116.065 665.018L118.005 664.049V647.243C118.005 639.164 122.207 634.962 128.027 635.285C130.613 629.468 136.756 627.852 143.869 632.053L155.507 638.84C164.883 644.334 172.642 657.262 172.642 668.25V685.379L177.169 687.964L179.108 701.861L181.048 700.891V678.269C180.725 658.878 167.47 635.609 150.981 626.236Z" fill="url(#paint116_radial_1:1019)"/>
<path d="M149.042 626.882L128.35 614.925C111.862 605.552 98.6067 612.986 98.6067 632.053V654.999L116.065 665.018V647.889C116.065 637.224 123.824 632.7 133.2 638.194L144.839 644.981C154.214 650.475 161.974 663.402 161.974 674.39V691.519L179.432 701.538V678.592C178.785 659.524 165.53 636.578 149.042 626.882Z" fill="url(#paint117_linear_1:1019)"/>
<g style="mix-blend-mode:screen">
<path d="M819.889 617.833V465.938H712.23V638.194C712.23 638.517 712.23 638.517 712.23 638.84V649.182H712.554C712.554 649.505 712.877 649.505 713.2 649.828L719.343 653.384C720.313 654.03 721.929 654.03 722.899 653.384L730.012 649.505L732.922 651.121C735.185 652.414 737.125 653.707 739.064 654.676L731.952 658.878C730.982 659.524 730.982 660.17 731.952 660.817L738.094 664.372C739.064 665.018 740.681 665.018 741.651 664.372L749.087 660.17C752.643 661.786 756.523 662.756 760.402 663.402C764.282 663.725 768.485 663.725 772.688 662.756C776.891 662.109 780.124 660.817 783.033 659.201C786.59 656.939 788.853 654.676 789.499 651.768C790.146 648.859 789.176 646.273 786.266 643.365C790.792 644.334 795.319 644.334 800.168 643.688C803.401 643.042 806.311 642.072 808.897 640.779C811.807 639.163 813.747 637.224 814.717 634.962C815.687 633.023 815.687 631.084 815.04 629.145C814.393 627.529 813.423 625.913 811.484 624.297L819.243 619.773C820.213 618.803 820.213 618.157 819.889 617.833Z" fill="url(#paint118_linear_1:1019)"/>
</g>
</g>
<defs>
<linearGradient id="paint0_linear_1:1019" x1="638.029" y1="301.98" x2="663.934" y2="360.129" gradientUnits="userSpaceOnUse">
<stop offset="0.0353535" stop-color="#FFA98C"/>
<stop offset="0.3169" stop-color="#FFB892"/>
<stop offset="0.8601" stop-color="#FEE1A3"/>
<stop offset="1" stop-color="#FEECA8"/>
</linearGradient>
<linearGradient id="paint1_linear_1:1019" x1="380.278" y1="130.436" x2="629.224" y2="433.719" gradientUnits="userSpaceOnUse">
<stop offset="0.0353535" stop-color="#FFA98C"/>
<stop offset="0.3169" stop-color="#FFB892"/>
<stop offset="0.8601" stop-color="#FEE1A3"/>
<stop offset="1" stop-color="#FEECA8"/>
</linearGradient>
<linearGradient id="paint2_linear_1:1019" x1="631.743" y1="-30.4681" x2="554.204" y2="315.35" gradientUnits="userSpaceOnUse">
<stop offset="0.0353535" stop-color="#FFA98C"/>
<stop offset="0.3169" stop-color="#FFB892"/>
<stop offset="0.8601" stop-color="#FEE1A3"/>
<stop offset="1" stop-color="#FEECA8"/>
</linearGradient>
<radialGradient id="paint3_radial_1:1019" cx="0" cy="0" r="1" gradientUnits="userSpaceOnUse" gradientTransform="translate(570.899 275.689) scale(89.9254 89.8926)">
<stop offset="0.0959596" stop-color="#FFE4A7"/>
<stop offset="0.4205" stop-color="#F4BE4C"/>
<stop offset="0.6717" stop-color="#ECA30A"/>
<stop offset="1"/>
</radialGradient>
<linearGradient id="paint4_linear_1:1019" x1="638.029" y1="268.584" x2="663.933" y2="326.733" gradientUnits="userSpaceOnUse">
<stop offset="0.0353535" stop-color="#FFA98C"/>
<stop offset="0.3169" stop-color="#FFB892"/>
<stop offset="0.8601" stop-color="#FEE1A3"/>
<stop offset="1" stop-color="#FEECA8"/>
</linearGradient>
<linearGradient id="paint5_linear_1:1019" x1="380.278" y1="97.0408" x2="629.223" y2="400.323" gradientUnits="userSpaceOnUse">
<stop offset="0.0353535" stop-color="#FFA98C"/>
<stop offset="0.3169" stop-color="#FFB892"/>
<stop offset="0.8601" stop-color="#FEE1A3"/>
<stop offset="1" stop-color="#FEECA8"/>
</linearGradient>
<linearGradient id="paint6_linear_1:1019" x1="631.742" y1="-63.8629" x2="554.204" y2="281.954" gradientUnits="userSpaceOnUse">
<stop offset="0.0353535" stop-color="#FFA98C"/>
<stop offset="0.3169" stop-color="#FFB892"/>
<stop offset="0.8601" stop-color="#FEE1A3"/>
<stop offset="1" stop-color="#FEECA8"/>
</linearGradient>
<radialGradient id="paint7_radial_1:1019" cx="0" cy="0" r="1" gradientUnits="userSpaceOnUse" gradientTransform="translate(570.899 242.293) scale(89.9254 89.8926)">
<stop offset="0.0959596" stop-color="#FFE4A7"/>
<stop offset="0.4205" stop-color="#F4BE4C"/>
<stop offset="0.6717" stop-color="#ECA30A"/>
<stop offset="1"/>
</radialGradient>
<linearGradient id="paint8_linear_1:1019" x1="638.029" y1="235.189" x2="663.933" y2="293.338" gradientUnits="userSpaceOnUse">
<stop offset="0.0353535" stop-color="#FFA98C"/>
<stop offset="0.3169" stop-color="#FFB892"/>
<stop offset="0.8601" stop-color="#FEE1A3"/>
<stop offset="1" stop-color="#FEECA8"/>
</linearGradient>
<linearGradient id="paint9_linear_1:1019" x1="380.278" y1="63.6463" x2="629.224" y2="366.929" gradientUnits="userSpaceOnUse">
<stop offset="0.0353535" stop-color="#FFA98C"/>
<stop offset="0.3169" stop-color="#FFB892"/>
<stop offset="0.8601" stop-color="#FEE1A3"/>
<stop offset="1" stop-color="#FEECA8"/>
</linearGradient>
<linearGradient id="paint10_linear_1:1019" x1="631.742" y1="-97.2578" x2="554.204" y2="248.559" gradientUnits="userSpaceOnUse">
<stop offset="0.0353535" stop-color="#FFA98C"/>
<stop offset="0.3169" stop-color="#FFB892"/>
<stop offset="0.8601" stop-color="#FEE1A3"/>
<stop offset="1" stop-color="#FEECA8"/>
</linearGradient>
<radialGradient id="paint11_radial_1:1019" cx="0" cy="0" r="1" gradientUnits="userSpaceOnUse" gradientTransform="translate(570.899 208.898) scale(89.9254 89.8926)">
<stop offset="0.0959596" stop-color="#FFE4A7"/>
<stop offset="0.4205" stop-color="#F4BE4C"/>
<stop offset="0.6717" stop-color="#ECA30A"/>
<stop offset="1"/>
</radialGradient>
<linearGradient id="paint12_linear_1:1019" x1="638.029" y1="201.793" x2="663.934" y2="259.942" gradientUnits="userSpaceOnUse">
<stop offset="0.0353535" stop-color="#FFA98C"/>
<stop offset="0.3169" stop-color="#FFB892"/>
<stop offset="0.8601" stop-color="#FEE1A3"/>
<stop offset="1" stop-color="#FEECA8"/>
</linearGradient>
<linearGradient id="paint13_linear_1:1019" x1="380.278" y1="30.2498" x2="629.224" y2="333.532" gradientUnits="userSpaceOnUse">
<stop offset="0.0353535" stop-color="#FFA98C"/>
<stop offset="0.3169" stop-color="#FFB892"/>
<stop offset="0.8601" stop-color="#FEE1A3"/>
<stop offset="1" stop-color="#FEECA8"/>
</linearGradient>
<linearGradient id="paint14_linear_1:1019" x1="650.698" y1="-215.134" x2="573.159" y2="130.684" gradientUnits="userSpaceOnUse">
<stop offset="0.0353535" stop-color="#FFA98C"/>
<stop offset="0.3169" stop-color="#FFB892"/>
<stop offset="0.8601" stop-color="#FEE1A3"/>
<stop offset="1" stop-color="#FEECA8"/>
</linearGradient>
<linearGradient id="paint15_linear_1:1019" x1="549.598" y1="110.557" x2="621.767" y2="212.115" gradientUnits="userSpaceOnUse">
<stop stop-color="#25054D"/>
<stop offset="1" stop-color="#45108A"/>
</linearGradient>
<radialGradient id="paint16_radial_1:1019" cx="0" cy="0" r="1" gradientUnits="userSpaceOnUse" gradientTransform="translate(570.899 175.502) scale(89.9254 89.8926)">
<stop offset="0.0959596" stop-color="#FFE4A7"/>
<stop offset="0.4205" stop-color="#F4BE4C"/>
<stop offset="0.6717" stop-color="#ECA30A"/>
<stop offset="1"/>
</radialGradient>
<radialGradient id="paint17_radial_1:1019" cx="0" cy="0" r="1" gradientUnits="userSpaceOnUse" gradientTransform="translate(577.693 172.504) scale(56.3826 56.3621)">
<stop stop-color="white"/>
<stop offset="1"/>
</radialGradient>
<linearGradient id="paint18_linear_1:1019" x1="582.257" y1="148.572" x2="582.257" y2="5.02504" gradientUnits="userSpaceOnUse">
<stop stop-color="#1BB0D4"/>
<stop offset="0.0544733" stop-color="#189DBD"/>
<stop offset="0.1831" stop-color="#12738B"/>
<stop offset="0.3149" stop-color="#0C5060"/>
<stop offset="0.4475" stop-color="#08333E"/>
<stop offset="0.5813" stop-color="#041D23"/>
<stop offset="0.7168" stop-color="#020D0F"/>
<stop offset="0.8549" stop-color="#000304"/>
<stop offset="1"/>
</linearGradient>
<linearGradient id="paint19_linear_1:1019" x1="730.82" y1="683.522" x2="820.028" y2="883.769" gradientUnits="userSpaceOnUse">
<stop stop-color="#25054D"/>
<stop offset="1" stop-color="#45108A"/>
</linearGradient>
<radialGradient id="paint20_radial_1:1019" cx="0" cy="0" r="1" gradientUnits="userSpaceOnUse" gradientTransform="translate(648.511 573.087) scale(124.987 124.942)">
<stop offset="0.0959596" stop-color="#45108A"/>
<stop offset="0.6717" stop-color="#25054D"/>
<stop offset="1"/>
</radialGradient>
<linearGradient id="paint21_linear_1:1019" x1="585.961" y1="765.641" x2="675.168" y2="965.887" gradientUnits="userSpaceOnUse">
<stop stop-color="#25054D"/>
<stop offset="1" stop-color="#45108A"/>
</linearGradient>
<radialGradient id="paint22_radial_1:1019" cx="0" cy="0" r="1" gradientUnits="userSpaceOnUse" gradientTransform="translate(503.651 655.207) scale(124.987 124.942)">
<stop offset="0.0959596" stop-color="#45108A"/>
<stop offset="0.6717" stop-color="#25054D"/>
<stop offset="1"/>
</radialGradient>
<linearGradient id="paint23_linear_1:1019" x1="541.827" y1="171.71" x2="445.958" y2="294.553" gradientUnits="userSpaceOnUse">
<stop stop-color="#972A74"/>
<stop offset="0.0412825" stop-color="#8A266A"/>
<stop offset="0.1941" stop-color="#601B4A"/>
<stop offset="0.35" stop-color="#3D112F"/>
<stop offset="0.5074" stop-color="#220A1B"/>
<stop offset="0.6667" stop-color="#0F040C"/>
<stop offset="0.8293" stop-color="#040103"/>
<stop offset="1"/>
</linearGradient>
<linearGradient id="paint24_linear_1:1019" x1="868.78" y1="767.024" x2="957.988" y2="967.269" gradientUnits="userSpaceOnUse">
<stop stop-color="#25054D"/>
<stop offset="1" stop-color="#45108A"/>
</linearGradient>
<linearGradient id="paint25_linear_1:1019" x1="727.371" y1="849.143" x2="816.579" y2="1049.39" gradientUnits="userSpaceOnUse">
<stop stop-color="#25054D"/>
<stop offset="1" stop-color="#45108A"/>
</linearGradient>
<linearGradient id="paint26_linear_1:1019" x1="158.453" y1="725.843" x2="261.353" y2="668.716" gradientUnits="userSpaceOnUse">
<stop stop-color="#972A74"/>
<stop offset="0.0412825" stop-color="#8A266A"/>
<stop offset="0.1941" stop-color="#601B4A"/>
<stop offset="0.35" stop-color="#3D112F"/>
<stop offset="0.5074" stop-color="#220A1B"/>
<stop offset="0.6667" stop-color="#0F040C"/>
<stop offset="0.8293" stop-color="#040103"/>
<stop offset="1"/>
</linearGradient>
<linearGradient id="paint27_linear_1:1019" x1="224.574" y1="816.571" x2="307.734" y2="1003.24" gradientUnits="userSpaceOnUse">
<stop offset="0.0353535" stop-color="#FFA98C"/>
<stop offset="0.3169" stop-color="#FFB892"/>
<stop offset="0.8601" stop-color="#FEE1A3"/>
<stop offset="1" stop-color="#FEECA8"/>
</linearGradient>
<linearGradient id="paint28_linear_1:1019" x1="-141.07" y1="437.539" x2="304.969" y2="980.933" gradientUnits="userSpaceOnUse">
<stop offset="0.0353535" stop-color="#FFA98C"/>
<stop offset="0.3169" stop-color="#FFB892"/>
<stop offset="0.8601" stop-color="#FEE1A3"/>
<stop offset="1" stop-color="#FEECA8"/>
</linearGradient>
<linearGradient id="paint29_linear_1:1019" x1="73.012" y1="752.01" x2="115.58" y2="752.01" gradientUnits="userSpaceOnUse">
<stop stop-color="#25054D"/>
<stop offset="1" stop-color="#45108A"/>
</linearGradient>
<linearGradient id="paint30_linear_1:1019" x1="184.996" y1="490.41" x2="137.752" y2="701.117" gradientUnits="userSpaceOnUse">
<stop offset="0.0353535" stop-color="#FFA98C"/>
<stop offset="0.3169" stop-color="#FFB892"/>
<stop offset="0.8601" stop-color="#FEE1A3"/>
<stop offset="1" stop-color="#FEECA8"/>
</linearGradient>
<radialGradient id="paint31_radial_1:1019" cx="0" cy="0" r="1" gradientUnits="userSpaceOnUse" gradientTransform="translate(143.714 689.557) scale(116.008 115.965)">
<stop offset="0.0959596" stop-color="#FFE4A7"/>
<stop offset="0.4205" stop-color="#F4BE4C"/>
<stop offset="0.6717" stop-color="#ECA30A"/>
<stop offset="1"/>
</radialGradient>
<radialGradient id="paint32_radial_1:1019" cx="0" cy="0" r="1" gradientUnits="userSpaceOnUse" gradientTransform="translate(145.486 742.741) scale(56.4437 56.4232)">
<stop stop-color="white"/>
<stop offset="1"/>
</radialGradient>
<linearGradient id="paint33_linear_1:1019" x1="128.872" y1="750.828" x2="-1.00647" y2="812.561" gradientUnits="userSpaceOnUse">
<stop stop-color="#1BB0D4"/>
<stop offset="0.0544733" stop-color="#189DBD"/>
<stop offset="0.1831" stop-color="#12738B"/>
<stop offset="0.3149" stop-color="#0C5060"/>
<stop offset="0.4475" stop-color="#08333E"/>
<stop offset="0.5813" stop-color="#041D23"/>
<stop offset="0.7168" stop-color="#020D0F"/>
<stop offset="0.8549" stop-color="#000304"/>
<stop offset="1"/>
</linearGradient>
<linearGradient id="paint34_linear_1:1019" x1="448" y1="850.396" x2="537.208" y2="1050.64" gradientUnits="userSpaceOnUse">
<stop stop-color="#25054D"/>
<stop offset="1" stop-color="#45108A"/>
</linearGradient>
<radialGradient id="paint35_radial_1:1019" cx="0" cy="0" r="1" gradientUnits="userSpaceOnUse" gradientTransform="translate(214.187 780.984) scale(154.145 154.089)">
<stop stop-color="#FDD65B"/>
<stop offset="0.2056" stop-color="#B19540"/>
<stop offset="0.4744" stop-color="#52461E"/>
<stop offset="0.6629" stop-color="#171308"/>
<stop offset="0.7525"/>
</radialGradient>
<radialGradient id="paint36_radial_1:1019" cx="0" cy="0" r="1" gradientUnits="userSpaceOnUse" gradientTransform="translate(365.69 739.961) scale(124.141 124.096)">
<stop offset="0.0959596" stop-color="#45108A"/>
<stop offset="0.6717" stop-color="#25054D"/>
<stop offset="1"/>
</radialGradient>
<linearGradient id="paint37_linear_1:1019" x1="310.039" y1="628.167" x2="399.246" y2="828.413" gradientUnits="userSpaceOnUse">
<stop stop-color="#25054D"/>
<stop offset="1" stop-color="#45108A"/>
</linearGradient>
<radialGradient id="paint38_radial_1:1019" cx="0" cy="0" r="1" gradientUnits="userSpaceOnUse" gradientTransform="translate(227.73 517.733) scale(124.987 124.941)">
<stop offset="0.0959596" stop-color="#45108A"/>
<stop offset="0.6717" stop-color="#25054D"/>
<stop offset="1"/>
</radialGradient>
<radialGradient id="paint39_radial_1:1019" cx="0" cy="0" r="1" gradientUnits="userSpaceOnUse" gradientTransform="translate(153.568 669.89) scale(148.258 148.204)">
<stop stop-color="#FDD65B"/>
<stop offset="0.2056" stop-color="#B19540"/>
<stop offset="0.4744" stop-color="#52461E"/>
<stop offset="0.6629" stop-color="#171308"/>
<stop offset="0.7525"/>
</radialGradient>
<linearGradient id="paint40_linear_1:1019" x1="585.961" y1="931.262" x2="675.168" y2="1131.51" gradientUnits="userSpaceOnUse">
<stop stop-color="#25054D"/>
<stop offset="1" stop-color="#45108A"/>
</linearGradient>
<radialGradient id="paint41_radial_1:1019" cx="0" cy="0" r="1" gradientUnits="userSpaceOnUse" gradientTransform="translate(503.651 820.827) scale(124.987 124.942)">
<stop offset="0.0959596" stop-color="#45108A"/>
<stop offset="0.6717" stop-color="#25054D"/>
<stop offset="1"/>
</radialGradient>
<linearGradient id="paint42_linear_1:1019" x1="448" y1="709.034" x2="537.208" y2="909.28" gradientUnits="userSpaceOnUse">
<stop stop-color="#25054D"/>
<stop offset="1" stop-color="#45108A"/>
</linearGradient>
<radialGradient id="paint43_radial_1:1019" cx="0" cy="0" r="1" gradientUnits="userSpaceOnUse" gradientTransform="translate(365.691 598.598) scale(124.987 124.942)">
<stop offset="0.0959596" stop-color="#45108A"/>
<stop offset="0.6717" stop-color="#25054D"/>
<stop offset="1"/>
</radialGradient>
<linearGradient id="paint44_linear_1:1019" x1="570.781" y1="805.942" x2="596.685" y2="864.091" gradientUnits="userSpaceOnUse">
<stop stop-color="#25054D"/>
<stop offset="1" stop-color="#45108A"/>
</linearGradient>
<linearGradient id="paint45_linear_1:1019" x1="570.291" y1="703.041" x2="594.154" y2="756.606" gradientUnits="userSpaceOnUse">
<stop stop-color="#25054D"/>
<stop offset="1" stop-color="#45108A"/>
</linearGradient>
<radialGradient id="paint46_radial_1:1019" cx="0" cy="0" r="1" gradientUnits="userSpaceOnUse" gradientTransform="translate(503.651 679.464) scale(123.556 123.511)">
<stop offset="0.0959596" stop-color="#45108A"/>
<stop offset="0.6717" stop-color="#25054D"/>
<stop offset="1"/>
</radialGradient>
<radialGradient id="paint47_radial_1:1019" cx="0" cy="0" r="1" gradientUnits="userSpaceOnUse" gradientTransform="translate(634.477 697.764) scale(125.016 124.97)">
<stop stop-color="#FDD65B"/>
<stop offset="0.2056" stop-color="#B19540"/>
<stop offset="0.4744" stop-color="#52461E"/>
<stop offset="0.6629" stop-color="#171308"/>
<stop offset="0.7525"/>
</radialGradient>
<linearGradient id="paint48_linear_1:1019" x1="585.961" y1="789.899" x2="675.169" y2="990.145" gradientUnits="userSpaceOnUse">
<stop stop-color="#25054D"/>
<stop offset="1" stop-color="#45108A"/>
</linearGradient>
<linearGradient id="paint49_linear_1:1019" x1="868.78" y1="625.66" x2="957.988" y2="825.906" gradientUnits="userSpaceOnUse">
<stop stop-color="#25054D"/>
<stop offset="1" stop-color="#45108A"/>
</linearGradient>
<radialGradient id="paint50_radial_1:1019" cx="0" cy="0" r="1" gradientUnits="userSpaceOnUse" gradientTransform="translate(786.472 515.225) scale(124.987 124.942)">
<stop offset="0.0959596" stop-color="#45108A"/>
<stop offset="0.6717" stop-color="#25054D"/>
<stop offset="1"/>
</radialGradient>
<linearGradient id="paint51_linear_1:1019" x1="827.491" y1="724.907" x2="575.765" y2="587.792" gradientUnits="userSpaceOnUse">
<stop stop-color="#972A74"/>
<stop offset="0.0412825" stop-color="#8A266A"/>
<stop offset="0.1941" stop-color="#601B4A"/>
<stop offset="0.35" stop-color="#3D112F"/>
<stop offset="0.5074" stop-color="#220A1B"/>
<stop offset="0.6667" stop-color="#0F040C"/>
<stop offset="0.8293" stop-color="#040103"/>
<stop offset="1"/>
</linearGradient>
<linearGradient id="paint52_linear_1:1019" x1="833.967" y1="794.922" x2="859.872" y2="853.07" gradientUnits="userSpaceOnUse">
<stop offset="0.0353535" stop-color="#FFA98C"/>
<stop offset="0.3169" stop-color="#FFB892"/>
<stop offset="0.8601" stop-color="#FEE1A3"/>
<stop offset="1" stop-color="#FEECA8"/>
</linearGradient>
<linearGradient id="paint53_linear_1:1019" x1="576.216" y1="623.379" x2="825.162" y2="926.661" gradientUnits="userSpaceOnUse">
<stop offset="0.0353535" stop-color="#FFA98C"/>
<stop offset="0.3169" stop-color="#FFB892"/>
<stop offset="0.8601" stop-color="#FEE1A3"/>
<stop offset="1" stop-color="#FEECA8"/>
</linearGradient>
<linearGradient id="paint54_linear_1:1019" x1="827.68" y1="462.475" x2="750.142" y2="808.292" gradientUnits="userSpaceOnUse">
<stop offset="0.0353535" stop-color="#FFA98C"/>
<stop offset="0.3169" stop-color="#FFB892"/>
<stop offset="0.8601" stop-color="#FEE1A3"/>
<stop offset="1" stop-color="#FEECA8"/>
</linearGradient>
<radialGradient id="paint55_radial_1:1019" cx="0" cy="0" r="1" gradientUnits="userSpaceOnUse" gradientTransform="translate(766.837 768.631) scale(89.925 89.8924)">
<stop offset="0.0959596" stop-color="#FFE4A7"/>
<stop offset="0.4205" stop-color="#F4BE4C"/>
<stop offset="0.6717" stop-color="#ECA30A"/>
<stop offset="1"/>
</radialGradient>
<linearGradient id="paint56_linear_1:1019" x1="833.967" y1="761.527" x2="859.872" y2="819.676" gradientUnits="userSpaceOnUse">
<stop offset="0.0353535" stop-color="#FFA98C"/>
<stop offset="0.3169" stop-color="#FFB892"/>
<stop offset="0.8601" stop-color="#FEE1A3"/>
<stop offset="1" stop-color="#FEECA8"/>
</linearGradient>
<linearGradient id="paint57_linear_1:1019" x1="576.216" y1="589.983" x2="825.162" y2="893.266" gradientUnits="userSpaceOnUse">
<stop offset="0.0353535" stop-color="#FFA98C"/>
<stop offset="0.3169" stop-color="#FFB892"/>
<stop offset="0.8601" stop-color="#FEE1A3"/>
<stop offset="1" stop-color="#FEECA8"/>
</linearGradient>
<linearGradient id="paint58_linear_1:1019" x1="827.68" y1="429.08" x2="750.142" y2="774.896" gradientUnits="userSpaceOnUse">
<stop offset="0.0353535" stop-color="#FFA98C"/>
<stop offset="0.3169" stop-color="#FFB892"/>
<stop offset="0.8601" stop-color="#FEE1A3"/>
<stop offset="1" stop-color="#FEECA8"/>
</linearGradient>
<radialGradient id="paint59_radial_1:1019" cx="0" cy="0" r="1" gradientUnits="userSpaceOnUse" gradientTransform="translate(766.837 735.235) scale(89.925 89.8922)">
<stop offset="0.0959596" stop-color="#FFE4A7"/>
<stop offset="0.4205" stop-color="#F4BE4C"/>
<stop offset="0.6717" stop-color="#ECA30A"/>
<stop offset="1"/>
</radialGradient>
<linearGradient id="paint60_linear_1:1019" x1="833.967" y1="728.131" x2="859.872" y2="786.281" gradientUnits="userSpaceOnUse">
<stop offset="0.0353535" stop-color="#FFA98C"/>
<stop offset="0.3169" stop-color="#FFB892"/>
<stop offset="0.8601" stop-color="#FEE1A3"/>
<stop offset="1" stop-color="#FEECA8"/>
</linearGradient>
<linearGradient id="paint61_linear_1:1019" x1="576.216" y1="556.587" x2="825.162" y2="859.87" gradientUnits="userSpaceOnUse">
<stop offset="0.0353535" stop-color="#FFA98C"/>
<stop offset="0.3169" stop-color="#FFB892"/>
<stop offset="0.8601" stop-color="#FEE1A3"/>
<stop offset="1" stop-color="#FEECA8"/>
</linearGradient>
<linearGradient id="paint62_linear_1:1019" x1="827.68" y1="395.684" x2="750.142" y2="741.501" gradientUnits="userSpaceOnUse">
<stop offset="0.0353535" stop-color="#FFA98C"/>
<stop offset="0.3169" stop-color="#FFB892"/>
<stop offset="0.8601" stop-color="#FEE1A3"/>
<stop offset="1" stop-color="#FEECA8"/>
</linearGradient>
<radialGradient id="paint63_radial_1:1019" cx="0" cy="0" r="1" gradientUnits="userSpaceOnUse" gradientTransform="translate(766.837 701.839) scale(89.925 89.8922)">
<stop offset="0.0959596" stop-color="#FFE4A7"/>
<stop offset="0.4205" stop-color="#F4BE4C"/>
<stop offset="0.6717" stop-color="#ECA30A"/>
<stop offset="1"/>
</radialGradient>
<linearGradient id="paint64_linear_1:1019" x1="833.967" y1="694.735" x2="859.872" y2="752.884" gradientUnits="userSpaceOnUse">
<stop offset="0.0353535" stop-color="#FFA98C"/>
<stop offset="0.3169" stop-color="#FFB892"/>
<stop offset="0.8601" stop-color="#FEE1A3"/>
<stop offset="1" stop-color="#FEECA8"/>
</linearGradient>
<linearGradient id="paint65_linear_1:1019" x1="576.216" y1="523.192" x2="825.162" y2="826.475" gradientUnits="userSpaceOnUse">
<stop offset="0.0353535" stop-color="#FFA98C"/>
<stop offset="0.3169" stop-color="#FFB892"/>
<stop offset="0.8601" stop-color="#FEE1A3"/>
<stop offset="1" stop-color="#FEECA8"/>
</linearGradient>
<linearGradient id="paint66_linear_1:1019" x1="846.636" y1="277.81" x2="769.098" y2="623.626" gradientUnits="userSpaceOnUse">
<stop offset="0.0353535" stop-color="#FFA98C"/>
<stop offset="0.3169" stop-color="#FFB892"/>
<stop offset="0.8601" stop-color="#FEE1A3"/>
<stop offset="1" stop-color="#FEECA8"/>
</linearGradient>
<linearGradient id="paint67_linear_1:1019" x1="745.536" y1="603.499" x2="817.705" y2="705.057" gradientUnits="userSpaceOnUse">
<stop stop-color="#25054D"/>
<stop offset="1" stop-color="#45108A"/>
</linearGradient>
<radialGradient id="paint68_radial_1:1019" cx="0" cy="0" r="1" gradientUnits="userSpaceOnUse" gradientTransform="translate(766.837 668.444) scale(89.925 89.8924)">
<stop offset="0.0959596" stop-color="#FFE4A7"/>
<stop offset="0.4205" stop-color="#F4BE4C"/>
<stop offset="0.6717" stop-color="#ECA30A"/>
<stop offset="1"/>
</radialGradient>
<radialGradient id="paint69_radial_1:1019" cx="0" cy="0" r="1" gradientUnits="userSpaceOnUse" gradientTransform="translate(782.118 670.967) scale(67.2558 67.2314)">
<stop stop-color="white"/>
<stop offset="1"/>
</radialGradient>
<linearGradient id="paint70_linear_1:1019" x1="730.82" y1="403.431" x2="820.027" y2="603.677" gradientUnits="userSpaceOnUse">
<stop stop-color="#25054D"/>
<stop offset="1" stop-color="#45108A"/>
</linearGradient>
<radialGradient id="paint71_radial_1:1019" cx="0" cy="0" r="1" gradientUnits="userSpaceOnUse" gradientTransform="translate(648.511 292.996) scale(124.987 124.941)">
<stop offset="0.0959596" stop-color="#45108A"/>
<stop offset="0.6717" stop-color="#25054D"/>
<stop offset="1"/>
</radialGradient>
<radialGradient id="paint72_radial_1:1019" cx="0" cy="0" r="1" gradientUnits="userSpaceOnUse" gradientTransform="translate(675.878 448.004) scale(22.827 22.8186)">
<stop offset="0.1515" stop-color="#5213A6"/>
<stop offset="0.2544" stop-color="#45108A"/>
<stop offset="0.7959" stop-color="#25054D"/>
<stop offset="0.9694" stop-color="#2D085C"/>
</radialGradient>
<radialGradient id="paint73_radial_1:1019" cx="0" cy="0" r="1" gradientUnits="userSpaceOnUse" gradientTransform="translate(675.878 342.969) scale(22.827 22.8186)">
<stop offset="0.1515" stop-color="#5213A6"/>
<stop offset="0.2544" stop-color="#45108A"/>
<stop offset="0.7959" stop-color="#25054D"/>
<stop offset="0.9694" stop-color="#2D085C"/>
</radialGradient>
<radialGradient id="paint74_radial_1:1019" cx="0" cy="0" r="1" gradientUnits="userSpaceOnUse" gradientTransform="translate(780.142 405.99) scale(22.8269 22.8186)">
<stop offset="0.1515" stop-color="#5213A6"/>
<stop offset="0.2544" stop-color="#45108A"/>
<stop offset="0.7959" stop-color="#25054D"/>
<stop offset="0.9694" stop-color="#2D085C"/>
</radialGradient>
<radialGradient id="paint75_radial_1:1019" cx="0" cy="0" r="1" gradientUnits="userSpaceOnUse" gradientTransform="translate(750.237 453.66) scale(22.8269 22.8186)">
<stop offset="0.1515" stop-color="#5213A6"/>
<stop offset="0.2544" stop-color="#45108A"/>
<stop offset="0.7959" stop-color="#25054D"/>
<stop offset="0.9694" stop-color="#2D085C"/>
</radialGradient>
<radialGradient id="paint76_radial_1:1019" cx="0" cy="0" r="1" gradientUnits="userSpaceOnUse" gradientTransform="translate(886.023 342.969) scale(22.8269 22.8186)">
<stop offset="0.1515" stop-color="#5213A6"/>
<stop offset="0.2544" stop-color="#45108A"/>
<stop offset="0.7959" stop-color="#25054D"/>
<stop offset="0.9694" stop-color="#2D085C"/>
</radialGradient>
<radialGradient id="paint77_radial_1:1019" cx="0" cy="0" r="1" gradientUnits="userSpaceOnUse" gradientTransform="translate(886.023 446.388) scale(22.8269 22.8186)">
<stop offset="0.1515" stop-color="#5213A6"/>
<stop offset="0.2544" stop-color="#45108A"/>
<stop offset="0.7959" stop-color="#25054D"/>
<stop offset="0.9694" stop-color="#2D085C"/>
</radialGradient>
<radialGradient id="paint78_radial_1:1019" cx="0" cy="0" r="1" gradientUnits="userSpaceOnUse" gradientTransform="translate(780.142 510.217) scale(22.8269 22.8186)">
<stop offset="0.1515" stop-color="#5213A6"/>
<stop offset="0.2544" stop-color="#45108A"/>
<stop offset="0.7959" stop-color="#25054D"/>
<stop offset="0.9694" stop-color="#2D085C"/>
</radialGradient>
<radialGradient id="paint79_radial_1:1019" cx="0" cy="0" r="1" gradientUnits="userSpaceOnUse" gradientTransform="translate(780.142 279.949) scale(22.8269 22.8186)">
<stop offset="0.1515" stop-color="#5213A6"/>
<stop offset="0.2544" stop-color="#45108A"/>
<stop offset="0.7959" stop-color="#25054D"/>
<stop offset="0.9694" stop-color="#2D085C"/>
</radialGradient>
<radialGradient id="paint80_radial_1:1019" cx="0" cy="0" r="1" gradientUnits="userSpaceOnUse" gradientTransform="translate(805.198 342.162) scale(22.8269 22.8187)">
<stop offset="0.1515" stop-color="#5213A6"/>
<stop offset="0.2544" stop-color="#45108A"/>
<stop offset="0.7959" stop-color="#25054D"/>
<stop offset="0.9694" stop-color="#2D085C"/>
</radialGradient>
<radialGradient id="paint81_radial_1:1019" cx="0" cy="0" r="1" gradientUnits="userSpaceOnUse" gradientTransform="translate(840.761 379.328) scale(22.8269 22.8187)">
<stop offset="0.1515" stop-color="#5213A6"/>
<stop offset="0.2544" stop-color="#45108A"/>
<stop offset="0.7959" stop-color="#25054D"/>
<stop offset="0.9694" stop-color="#2D085C"/>
</radialGradient>
<radialGradient id="paint82_radial_1:1019" cx="0" cy="0" r="1" gradientUnits="userSpaceOnUse" gradientTransform="translate(820.959 439.924) scale(22.827 22.8186)">
<stop offset="0.1515" stop-color="#5213A6"/>
<stop offset="0.2544" stop-color="#45108A"/>
<stop offset="0.7959" stop-color="#25054D"/>
<stop offset="0.9694" stop-color="#2D085C"/>
</radialGradient>
<radialGradient id="paint83_radial_1:1019" cx="0" cy="0" r="1" gradientUnits="userSpaceOnUse" gradientTransform="translate(727.606 393.063) scale(22.827 22.8186)">
<stop offset="0.1515" stop-color="#5213A6"/>
<stop offset="0.2544" stop-color="#45108A"/>
<stop offset="0.7959" stop-color="#25054D"/>
<stop offset="0.9694" stop-color="#2D085C"/>
</radialGradient>
<radialGradient id="paint84_radial_1:1019" cx="0" cy="0" r="1" gradientUnits="userSpaceOnUse" gradientTransform="translate(748.62 337.314) scale(22.827 22.8186)">
<stop offset="0.1515" stop-color="#5213A6"/>
<stop offset="0.2544" stop-color="#45108A"/>
<stop offset="0.7959" stop-color="#25054D"/>
<stop offset="0.9694" stop-color="#2D085C"/>
</radialGradient>
<linearGradient id="paint85_linear_1:1019" x1="451.449" y1="404.684" x2="540.656" y2="604.93" gradientUnits="userSpaceOnUse">
<stop stop-color="#25054D"/>
<stop offset="1" stop-color="#45108A"/>
</linearGradient>
<radialGradient id="paint86_radial_1:1019" cx="0" cy="0" r="1" gradientUnits="userSpaceOnUse" gradientTransform="translate(369.14 294.249) scale(124.987 124.941)">
<stop offset="0.0959596" stop-color="#45108A"/>
<stop offset="0.6717" stop-color="#25054D"/>
<stop offset="1"/>
</radialGradient>
<linearGradient id="paint87_linear_1:1019" x1="585.961" y1="485.55" x2="675.169" y2="685.797" gradientUnits="userSpaceOnUse">
<stop stop-color="#25054D"/>
<stop offset="1" stop-color="#45108A"/>
</linearGradient>
<radialGradient id="paint88_radial_1:1019" cx="0" cy="0" r="1" gradientUnits="userSpaceOnUse" gradientTransform="translate(503.651 375.115) scale(124.987 124.942)">
<stop offset="0.0959596" stop-color="#45108A"/>
<stop offset="0.6717" stop-color="#25054D"/>
<stop offset="1"/>
</radialGradient>
<linearGradient id="paint89_linear_1:1019" x1="727.371" y1="566.416" x2="816.579" y2="766.662" gradientUnits="userSpaceOnUse">
<stop stop-color="#25054D"/>
<stop offset="1" stop-color="#45108A"/>
</linearGradient>
<radialGradient id="paint90_radial_1:1019" cx="0" cy="0" r="1" gradientUnits="userSpaceOnUse" gradientTransform="translate(645.062 455.981) scale(134.136 134.087)">
<stop offset="0.0959596" stop-color="#45108A"/>
<stop offset="0.6717" stop-color="#25054D"/>
<stop offset="1"/>
</radialGradient>
<radialGradient id="paint91_radial_1:1019" cx="0" cy="0" r="1" gradientUnits="userSpaceOnUse" gradientTransform="translate(677.314 671.91) scale(299.367 299.258)">
<stop stop-color="#FDD65B"/>
<stop offset="0.2056" stop-color="#B19540"/>
<stop offset="0.4744" stop-color="#52461E"/>
<stop offset="0.6629" stop-color="#171308"/>
<stop offset="0.7525"/>
</radialGradient>
<radialGradient id="paint92_radial_1:1019" cx="0" cy="0" r="1" gradientUnits="userSpaceOnUse" gradientTransform="translate(634.208 617.507) scale(206.064 205.989)">
<stop stop-color="#43E8E1"/>
<stop offset="0.1619" stop-color="#33B1AB"/>
<stop offset="0.4524" stop-color="#185250"/>
<stop offset="0.6557" stop-color="#071716"/>
<stop offset="0.7525"/>
</radialGradient>
<linearGradient id="paint93_linear_1:1019" x1="310.039" y1="486.804" x2="399.246" y2="687.05" gradientUnits="userSpaceOnUse">
<stop stop-color="#25054D"/>
<stop offset="1" stop-color="#45108A"/>
</linearGradient>
<radialGradient id="paint94_radial_1:1019" cx="0" cy="0" r="1" gradientUnits="userSpaceOnUse" gradientTransform="translate(227.73 376.369) scale(124.987 124.941)">
<stop offset="0.0959596" stop-color="#45108A"/>
<stop offset="0.6717" stop-color="#25054D"/>
<stop offset="1"/>
</radialGradient>
<linearGradient id="paint95_linear_1:1019" x1="448" y1="567.669" x2="537.207" y2="767.915" gradientUnits="userSpaceOnUse">
<stop stop-color="#25054D"/>
<stop offset="1" stop-color="#45108A"/>
</linearGradient>
<linearGradient id="paint96_linear_1:1019" x1="405.11" y1="558.145" x2="688.375" y2="473.295" gradientUnits="userSpaceOnUse">
<stop stop-color="#25054D"/>
<stop offset="1" stop-color="#45108A"/>
</linearGradient>
<linearGradient id="paint97_linear_1:1019" x1="373.229" y1="551.698" x2="480.053" y2="551.698" gradientUnits="userSpaceOnUse">
<stop stop-color="#25054D"/>
<stop offset="1" stop-color="#45108A"/>
</linearGradient>
<linearGradient id="paint98_linear_1:1019" x1="122.454" y1="592.496" x2="495.222" y2="508.903" gradientUnits="userSpaceOnUse">
<stop stop-color="#25054D"/>
<stop offset="1" stop-color="#45108A"/>
</linearGradient>
<linearGradient id="paint99_linear_1:1019" x1="251.173" y1="551.634" x2="358.406" y2="551.634" gradientUnits="userSpaceOnUse">
<stop stop-color="#25054D"/>
<stop offset="1" stop-color="#45108A"/>
</linearGradient>
<linearGradient id="paint100_linear_1:1019" x1="492.52" y1="244.549" x2="356.082" y2="504.668" gradientUnits="userSpaceOnUse">
<stop stop-color="#25054D"/>
<stop offset="1" stop-color="#45108A"/>
</linearGradient>
<linearGradient id="paint101_linear_1:1019" x1="345.663" y1="534.575" x2="590.111" y2="461.352" gradientUnits="userSpaceOnUse">
<stop offset="0.030303" stop-color="#7C1DC9"/>
<stop offset="0.2138" stop-color="#6E41D2"/>
<stop offset="0.6184" stop-color="#4C9BE8"/>
<stop offset="1" stop-color="#2AF6FF"/>
</linearGradient>
<linearGradient id="paint102_linear_1:1019" x1="151.839" y1="546.811" x2="473.343" y2="474.714" gradientUnits="userSpaceOnUse">
<stop offset="0.0353535" stop-color="#138BBD"/>
<stop offset="0.2257" stop-color="#169AC7"/>
<stop offset="0.5946" stop-color="#1FC3DF"/>
<stop offset="1" stop-color="#2AF6FF"/>
</linearGradient>
<linearGradient id="paint103_linear_1:1019" x1="405.11" y1="494.315" x2="688.375" y2="409.465" gradientUnits="userSpaceOnUse">
<stop stop-color="#25054D"/>
<stop offset="1" stop-color="#45108A"/>
</linearGradient>
<linearGradient id="paint104_linear_1:1019" x1="122.454" y1="528.667" x2="495.222" y2="445.074" gradientUnits="userSpaceOnUse">
<stop stop-color="#25054D"/>
<stop offset="1" stop-color="#45108A"/>
</linearGradient>
<linearGradient id="paint105_linear_1:1019" x1="251.173" y1="487.804" x2="358.406" y2="487.804" gradientUnits="userSpaceOnUse">
<stop stop-color="#25054D"/>
<stop offset="1" stop-color="#45108A"/>
</linearGradient>
<radialGradient id="paint106_radial_1:1019" cx="0" cy="0" r="1" gradientUnits="userSpaceOnUse" gradientTransform="translate(365.615 457.485) scale(124.781 124.736)">
<stop offset="0.0959596" stop-color="#45108A"/>
<stop offset="0.6717" stop-color="#25054D"/>
<stop offset="1"/>
</radialGradient>
<linearGradient id="paint107_linear_1:1019" x1="365.58" y1="356.541" x2="365.58" y2="461.13" gradientUnits="userSpaceOnUse">
<stop offset="0.030303" stop-color="#7C1DC9"/>
<stop offset="0.2138" stop-color="#6E41D2"/>
<stop offset="0.6184" stop-color="#4C9BE8"/>
<stop offset="1" stop-color="#2AF6FF"/>
</linearGradient>
<radialGradient id="paint108_radial_1:1019" cx="0" cy="0" r="1" gradientUnits="userSpaceOnUse" gradientTransform="translate(365.016 474.396) scale(51.3896 51.3709)">
<stop stop-color="white"/>
<stop offset="1"/>
</radialGradient>
<linearGradient id="paint109_linear_1:1019" x1="365.58" y1="475.559" x2="365.58" y2="188.156" gradientUnits="userSpaceOnUse">
<stop stop-color="#1BB0D4"/>
<stop offset="0.0544733" stop-color="#189DBD"/>
<stop offset="0.1831" stop-color="#12738B"/>
<stop offset="0.3149" stop-color="#0C5060"/>
<stop offset="0.4475" stop-color="#08333E"/>
<stop offset="0.5813" stop-color="#041D23"/>
<stop offset="0.7168" stop-color="#020D0F"/>
<stop offset="0.8549" stop-color="#000304"/>
<stop offset="1"/>
</linearGradient>
<linearGradient id="paint110_linear_1:1019" x1="585.961" y1="648.535" x2="675.168" y2="848.781" gradientUnits="userSpaceOnUse">
<stop stop-color="#25054D"/>
<stop offset="1" stop-color="#45108A"/>
</linearGradient>
<radialGradient id="paint111_radial_1:1019" cx="0" cy="0" r="1" gradientUnits="userSpaceOnUse" gradientTransform="translate(503.651 538.1) scale(124.987 124.942)">
<stop offset="0.0959596" stop-color="#45108A"/>
<stop offset="0.6717" stop-color="#25054D"/>
<stop offset="1"/>
</radialGradient>
<linearGradient id="paint112_linear_1:1019" x1="209.043" y1="677.52" x2="132.535" y2="706.625" gradientUnits="userSpaceOnUse">
<stop stop-color="white"/>
<stop offset="1" stop-color="#A3653D"/>
</linearGradient>
<linearGradient id="paint113_linear_1:1019" x1="146.269" y1="640.623" x2="69.7617" y2="669.728" gradientUnits="userSpaceOnUse">
<stop stop-color="white"/>
<stop offset="1" stop-color="#A3653D"/>
</linearGradient>
<linearGradient id="paint114_linear_1:1019" x1="220.283" y1="765.763" x2="231.054" y2="783.003" gradientUnits="userSpaceOnUse">
<stop offset="0.0353535" stop-color="#FFA98C"/>
<stop offset="0.3169" stop-color="#FFB892"/>
<stop offset="0.8601" stop-color="#FEE1A3"/>
<stop offset="1" stop-color="#FEECA8"/>
</linearGradient>
<linearGradient id="paint115_linear_1:1019" x1="350.216" y1="976.679" x2="375.074" y2="1016.47" gradientUnits="userSpaceOnUse">
<stop offset="0.0353535" stop-color="#FFA98C"/>
<stop offset="0.3169" stop-color="#FFB892"/>
<stop offset="0.8601" stop-color="#FEE1A3"/>
<stop offset="1" stop-color="#FEECA8"/>
</linearGradient>
<radialGradient id="paint116_radial_1:1019" cx="0" cy="0" r="1" gradientUnits="userSpaceOnUse" gradientTransform="translate(161.29 637.623) scale(93.8489 93.8147)">
<stop offset="0.0959596" stop-color="#FFE4A7"/>
<stop offset="0.4205" stop-color="#F4BE4C"/>
<stop offset="0.6717" stop-color="#ECA30A"/>
<stop offset="1"/>
</radialGradient>
<linearGradient id="paint117_linear_1:1019" x1="77.8091" y1="771.077" x2="176.361" y2="595.99" gradientUnits="userSpaceOnUse">
<stop offset="0.0353535" stop-color="#FFA98C"/>
<stop offset="0.313" stop-color="#FFB893"/>
<stop offset="0.3225" stop-color="#FFB993"/>
<stop offset="0.8165" stop-color="#FEDDA2"/>
<stop offset="1" stop-color="#FEECA8"/>
</linearGradient>
<linearGradient id="paint118_linear_1:1019" x1="766.035" y1="654.435" x2="766.035" y2="462.877" gradientUnits="userSpaceOnUse">
<stop stop-color="#1BB0D4"/>
<stop offset="0.0544733" stop-color="#189DBD"/>
<stop offset="0.1831" stop-color="#12738B"/>
<stop offset="0.3149" stop-color="#0C5060"/>
<stop offset="0.4475" stop-color="#08333E"/>
<stop offset="0.5813" stop-color="#041D23"/>
<stop offset="0.7168" stop-color="#020D0F"/>
<stop offset="0.8549" stop-color="#000304"/>
<stop offset="1"/>
</linearGradient>
<clipPath id="clip0_1:1019">
<rect width="913" height="987" fill="white" transform="translate(0 0.554443)"/>
</clipPath>
</defs>
</svg>